<?xml version="1.0" encoding="UTF-8"?>
<svg version="1.1" xmlns="http://www.w3.org/2000/svg" width="750" height="600">
<path d="M0 0 C2.8670615 2.8670615 4 4.91591468 4 9 C3.34 9.66 2.68 10.32 2 11 C2 11.99 2 12.98 2 14 C1.34 14.66 0.68 15.32 0 16 C-0.28875 16.639375 -0.5775 17.27875 -0.875 17.9375 C-2.22762828 20.41731851 -3.70511457 21.38008087 -6 23 C-7.35432675 24.31200404 -8.68733482 25.64631404 -10 27 C-10.70125 27.66 -11.4025 28.32 -12.125 29 C-14.81681482 31.87126914 -15.9449226 33.78829731 -16.125 37.75 C-16.08375 38.4925 -16.0425 39.235 -16 40 C-13.27157939 41.36421031 -11.39046682 40.87807211 -8.375 40.5625 C-7.37210938 40.46066406 -6.36921875 40.35882813 -5.3359375 40.25390625 C-4.56507813 40.17011719 -3.79421875 40.08632813 -3 40 C-2.67 38.68 -2.34 37.36 -2 36 C-0.125 35.375 -0.125 35.375 2 35 C4 37 4 37 4 41 C3.01 41.99 3.01 41.99 2 43 C1.7009375 43.65484375 1.401875 44.3096875 1.09375 44.984375 C-0.86227551 48.58905058 -4.21240388 49.78345423 -8 51 C-13.18558327 51.63655363 -17.4011954 51.63692924 -22 49 C-22 48.34 -22 47.68 -22 47 C-24.9431442 45.65694528 -24.9431442 45.65694528 -27.5234375 47.03125 C-29.42036405 48.0082971 -31.31620452 48.98745579 -33.2109375 49.96875 C-37.36921144 51.50626305 -39.92441149 50.3585295 -44 49 C-45.938694 49.49288831 -47.87683496 49.98840774 -49.80859375 50.5078125 C-53.36385686 51.30632079 -56.3554482 51.30371265 -60 51 C-61.36161311 50.03886134 -62.69855198 49.04115841 -64 48 C-68.93344548 47.35650711 -71.67084139 48.78936581 -76 51 C-79.83494538 51.44592388 -80.69022573 51.20651618 -84 49 C-84 48.34 -84 47.68 -84 47 C-84.495 47.28875 -84.99 47.5775 -85.5 47.875 C-90.43939891 50.09772951 -95.56404531 51.33974717 -101 51 C-101 50.34 -101 49.68 -101 49 C-103.31 48.67 -105.62 48.34 -108 48 C-108.24492187 48.61359375 -108.48984375 49.2271875 -108.7421875 49.859375 C-110.25052285 52.42635567 -111.44256788 53.03857904 -114.125 54.25 C-114.84945312 54.58515625 -115.57390625 54.9203125 -116.3203125 55.265625 C-116.87460937 55.50796875 -117.42890625 55.7503125 -118 56 C-118 56.66 -118 57.32 -118 58 C-118.66 58.66 -119.32 59.32 -120 60 C-120 60.99 -120 61.98 -120 63 C-123.3903061 66.3903061 -127.26095678 69.9430355 -132.25390625 70.046875 C-133.01574219 69.94890625 -133.77757812 69.8509375 -134.5625 69.75 C-135.32691406 69.66234375 -136.09132813 69.5746875 -136.87890625 69.484375 C-139 69 -139 69 -142 67 C-142 66.34 -142 65.68 -142 65 C-142.66 65 -143.32 65 -144 65 C-144.08096803 63.54257537 -144.13917774 62.08387193 -144.1875 60.625 C-144.23970703 59.40683594 -144.23970703 59.40683594 -144.29296875 58.1640625 C-144.19628906 57.44992187 -144.09960938 56.73578125 -144 56 C-138.85913339 52.57275559 -133.99202204 52.8984403 -128 53 C-128 52.34 -128 51.68 -128 51 C-129.19625 51.226875 -130.3925 51.45375 -131.625 51.6875 C-135.9485738 52.2507825 -138.16835995 51.08241307 -142 49 C-145.0915542 48.69084458 -147.11168143 48.5262301 -149.875 50 C-153.21295502 51.57080236 -156.34001139 51.12199962 -160 51 C-160.33 49.68 -160.66 48.36 -161 47 C-161.66 47 -162.32 47 -163 47 C-163.02685095 44.52076199 -163.04676547 42.0418116 -163.0625 39.5625 C-163.07506836 38.50192383 -163.07506836 38.50192383 -163.08789062 37.41992188 C-163.09653588 35.61306441 -163.05220011 33.80612397 -163 32 C-162.67 31.67 -162.34 31.34 -162 31 C-161.5427343 27.96665326 -161.16351753 24.92791636 -160.79296875 21.8828125 C-159.8763686 18.55054201 -158.93441121 17.70231563 -156 16 C-154.02 16.99 -152.04 17.98 -150 19 C-149.875 22.375 -149.875 22.375 -150 26 C-150.66 26.66 -151.32 27.32 -152 28 C-152 29.155 -152 30.31 -152 31.5 C-152 32.655 -152 33.81 -152 35 C-152.66 35.66 -153.32 36.32 -154 37 C-153.6814823 39.10820797 -153.6814823 39.10820797 -153 41 C-151.35 41 -149.7 41 -148 41 C-146.33510818 37.07561214 -145.12795963 33.10899581 -144 29 C-143.34 29 -142.68 29 -142 29 C-141.95875 28.278125 -141.9175 27.55625 -141.875 26.8125 C-140.59267639 22.69074553 -138.51889287 21.46322501 -135 19 C-134.01 19 -133.02 19 -132 19 C-132 18.34 -132 17.68 -132 17 C-129.08277452 16.91896596 -126.16780484 16.85948919 -123.25 16.8125 C-122.425 16.78736328 -121.6 16.76222656 -120.75 16.73632812 C-117.26099795 16.69412246 -114.66218863 16.70636896 -111.4453125 18.1328125 C-109.37726739 20.80450321 -109.53572035 22.72262955 -109.625 26.0625 C-109.63789063 27.12597656 -109.65078125 28.18945312 -109.6640625 29.28515625 C-110 32 -110 32 -112 34 C-112 34.99 -112 35.98 -112 37 C-112.66 37.66 -113.32 38.32 -114 39 C-114 39.99 -114 40.98 -114 42 C-112.08533633 41.87822312 -112.08533633 41.87822312 -110 41 C-105.47782301 35.39250053 -103.92045784 26.99547961 -103 20 C-102.34 20 -101.68 20 -101 20 C-101 19.01 -101 18.02 -101 17 C-98.69 17 -96.38 17 -94 17 C-93.94210994 20.45826342 -93.90644179 23.91640293 -93.875 27.375 C-93.85824219 28.35984375 -93.84148437 29.3446875 -93.82421875 30.359375 C-93.81777344 31.30039062 -93.81132812 32.24140625 -93.8046875 33.2109375 C-93.79421387 34.08024902 -93.78374023 34.94956055 -93.77294922 35.84521484 C-94 38 -94 38 -96 40 C-94.515 40.495 -94.515 40.495 -93 41 C-92.54625 40.505 -92.0925 40.01 -91.625 39.5 C-90 38 -90 38 -88 38 C-87.67 36.68 -87.34 35.36 -87 34 C-86.34 34 -85.68 34 -85 34 C-85 31.03 -85 28.06 -85 25 C-85.66 25 -86.32 25 -87 25 C-87 23.02 -87 21.04 -87 19 C-86.34 19 -85.68 19 -85 19 C-84.505 17.515 -84.505 17.515 -84 16 C-83.01 16 -82.02 16 -81 16 C-81 14.68 -81 13.36 -81 12 C-80.34 12 -79.68 12 -79 12 C-78.67 10.68 -78.34 9.36 -78 8 C-76.02 8 -74.04 8 -72 8 C-72 8.66 -72 9.32 -72 10 C-71.01 10.99 -71.01 10.99 -70 12 C-70 12.66 -70 13.32 -70 14 C-70.66 14.66 -71.32 15.32 -72 16 C-70.02 16.99 -68.04 17.98 -66 19 C-66 20.65 -66 22.3 -66 24 C-68.64 24.66 -71.28 25.32 -74 26 C-74 26.66 -74 27.32 -74 28 C-74.66 28.66 -75.32 29.32 -76 30 C-76.24315656 32.66949409 -76.24315656 32.66949409 -76.125 35.625 C-76.10695313 36.62789063 -76.08890625 37.63078125 -76.0703125 38.6640625 C-76.04710937 39.43492187 -76.02390625 40.20578125 -76 41 C-73.69 41 -71.38 41 -69 41 C-68.67 39.35 -68.34 37.7 -68 36 C-67.34 36 -66.68 36 -66 36 C-65.67 33.69 -65.34 31.38 -65 29 C-64.34 29 -63.68 29 -63 29 C-62.979375 28.278125 -62.95875 27.55625 -62.9375 26.8125 C-61.55644299 22.66932896 -58.65909877 21.15909555 -55 19 C-54.16662109 18.43732422 -54.16662109 18.43732422 -53.31640625 17.86328125 C-49.68155564 16.50864046 -46.09166127 16.79217812 -42.25 16.875 C-41.06083984 16.88853516 -41.06083984 16.88853516 -39.84765625 16.90234375 C-37.89830719 16.92582988 -35.94911425 16.96169863 -34 17 C-34 17.66 -34 18.32 -34 19 C-33.01 19.99 -33.01 19.99 -32 21 C-32 21.66 -32 22.32 -32 23 C-32.66 23.66 -33.32 24.32 -34 25 C-34.16729357 28.06221886 -34.16729357 28.06221886 -34 31.5 C-33.875 35.03125 -33.875 35.03125 -34 38 C-34.99 38.99 -34.99 38.99 -36 40 C-33.03 40.495 -33.03 40.495 -30 41 C-27.96834048 36.66579301 -27.47939368 32.71403788 -27 28 C-26.34 28 -25.68 28 -25 28 C-24.96261719 27.3709375 -24.92523438 26.741875 -24.88671875 26.09375 C-24.43322879 20.18948851 -23.32023086 15.44749854 -21 10 C-20.34 10 -19.68 10 -19 10 C-18.67 9.01 -18.34 8.02 -18 7 C-17.34 6.67 -16.68 6.34 -16 6 C-15.67 5.01 -15.34 4.02 -15 3 C-10.28116299 -0.18521498 -5.55998529 -0.85623774 0 0 Z M-10 9 C-12.05270463 10.84188612 -12.05270463 10.84188612 -13 13 C-14 15 -14 15 -16 17 C-16 17.66 -16 18.32 -16 19 C-14.35 19 -12.7 19 -11 19 C-11 18.34 -11 17.68 -11 17 C-10.34 17 -9.68 17 -9 17 C-8.67 15.68 -8.34 14.36 -8 13 C-7.34 13 -6.68 13 -6 13 C-6 11.68 -6 10.36 -6 9 C-7.32 9 -8.64 9 -10 9 Z M-48 24 C-48 24.66 -48 25.32 -48 26 C-51.96 27.98 -51.96 27.98 -56 30 C-56 31.32 -56 32.64 -56 34 C-56.66 34.66 -57.32 35.32 -58 36 C-58.16681109 39.08347826 -58.16681109 39.08347826 -58 42 C-54.98131566 43.50934217 -52.32702771 43.17510672 -49 43 C-45.24094981 40.49396654 -45.08350583 39.33402331 -44 35 C-43.56304214 31.67316173 -43.25125404 28.3456459 -43 25 C-44.65 24.67 -46.3 24.34 -48 24 Z M-134 29 C-134 30.32 -134 31.64 -134 33 C-134.66 33.66 -135.32 34.32 -136 35 C-136.16681109 38.08347826 -136.16681109 38.08347826 -136 41 C-131.29366013 42.90225747 -131.29366013 42.90225747 -126.5625 41.9375 C-124.75602912 40.06288696 -124.75602912 40.06288696 -124.75 37.3125 C-124.87375 36.1678125 -124.87375 36.1678125 -125 35 C-124.34 35 -123.68 35 -123 35 C-122.67 32.69 -122.34 30.38 -122 28 C-121.34 28 -120.68 28 -120 28 C-120.33 27.01 -120.66 26.02 -121 25 C-126.11476819 24.36065398 -129.67254378 26.59466453 -134 29 Z M-138 62 C-135.03 62.495 -135.03 62.495 -132 63 C-131.67 62.01 -131.34 61.02 -131 60 C-134.95457848 59.65176193 -134.95457848 59.65176193 -138 62 Z " fill="#2A5D51" transform="translate(420,268)"/>
<path d="M0 0 C2 2 2 2 2 4 C5.21967465 4.07665892 8.07773295 3.98505136 11.25 3.375 C12.1575 3.25125 13.065 3.1275 14 3 C16 5 16 5 16.265625 7.75 C16.26046875 8.8225 16.2553125 9.895 16.25 11 C16.25773438 12.60875 16.25773438 12.60875 16.265625 14.25 C16 17 16 17 14 19 C14.3185177 21.10820797 14.3185177 21.10820797 15 23 C15.99 23 16.98 23 18 23 C18.33 21.68 18.66 20.36 19 19 C19.66 19 20.32 19 21 19 C21.03738281 17.87980469 21.07476563 16.75960938 21.11328125 15.60546875 C21.17894257 14.1327791 21.24538986 12.66012434 21.3125 11.1875 C21.33505859 10.44951172 21.35761719 9.71152344 21.38085938 8.95117188 C21.65084951 3.52682471 21.65084951 3.52682471 23.3203125 1.0078125 C26.1628051 -0.69768306 28.78987941 -0.29182914 32 0 C34 2 34 2 34.265625 4.75 C34.26046875 5.8225 34.2553125 6.895 34.25 8 C34.25773438 9.60875 34.25773438 9.60875 34.265625 11.25 C34 14 34 14 32 16 C32 16.99 32 17.98 32 19 C31.34 19.66 30.68 20.32 30 21 C30 21.99 30 22.98 30 24 C32.31 24 34.62 24 37 24 C37.33 21.69 37.66 19.38 38 17 C38.66 17 39.32 17 40 17 C40.33 13.37 40.66 9.74 41 6 C41.66 6 42.32 6 43 6 C42.979375 5.030625 42.95875 4.06125 42.9375 3.0625 C43 0 43 0 44 -1 C45.99958364 -1.04080783 48.00045254 -1.04254356 50 -1 C50 -0.34 50 0.32 50 1 C50.99 1.99 50.99 1.99 52 3 C52.265625 5.3125 52.265625 5.3125 52.25 8 C52.25773438 9.3303125 52.25773438 9.3303125 52.265625 10.6875 C52 13 52 13 50 15 C50 15.825 50 16.65 50 17.5 C50 18.325 50 19.15 50 20 C49.34 20.66 48.68 21.32 48 22 C48 23.32 48 24.64 48 26 C48.66 26 49.32 26 50 26 C50.33 25.34 50.66 24.68 51 24 C51.66 24 52.32 24 53 24 C53.33 22.35 53.66 20.7 54 19 C56.875 18.375 56.875 18.375 60 18 C62 20 62 20 62 24 C60.69855198 25.04115841 59.36161311 26.03886134 58 27 C57.71125 27.66 57.4225 28.32 57.125 29 C55.46038734 31.95931139 53.03442037 32.6806868 50 34 C50 34.66 50 35.32 50 36 C49.38125 36.45375 48.7625 36.9075 48.125 37.375 C45.83118307 39.1290953 45.16716911 40.41555412 44 43 C43.01 43.99 43.01 43.99 42 45 C41.70351563 45.65355469 41.40703125 46.30710937 41.1015625 46.98046875 C39.15249025 50.55376788 35.78078937 51.83464286 32 53 C28.12319981 53.11017549 24.67423035 52.22474345 21 51 C21 50.01 21 49.02 21 48 C20.34 48 19.68 48 19 48 C18.505 44.04 18.505 44.04 18 40 C24.75 36 24.75 36 27 36 C27 35.34 27 34.68 27 34 C22.87990318 32.62663439 18.00270935 31.99864533 14 34 C8.67784083 34.45294972 8.67784083 34.45294972 6.328125 32.8828125 C4.38661629 30.13043839 4.63794489 27.95662828 4.6875 24.625 C4.69136719 23.50351562 4.69523438 22.38203125 4.69921875 21.2265625 C4.99174258 18.08857964 5.66732072 15.83526189 7 13 C5.35 13.33 3.7 13.66 2 14 C2 15.32 2 16.64 2 18 C1.34 18.66 0.68 19.32 0 20 C-0.33333333 23 -0.33333333 23 0 26 C0.99 26.99 0.99 26.99 2 28 C2 29.32 2 30.64 2 32 C-3.29230769 35.07692308 -3.29230769 35.07692308 -6.875 34.6875 C-7.57625 34.460625 -8.2775 34.23375 -9 34 C-9.33 33.01 -9.66 32.02 -10 31 C-14.07964281 32.30155006 -14.07964281 32.30155006 -18 34 C-20.3329866 34.04022391 -22.66706666 34.04320247 -25 34 C-25.33 33.34 -25.66 32.68 -26 32 C-28.85609215 32.45096192 -31.69348324 32.93346923 -34.51953125 33.546875 C-35.39996094 33.73765625 -36.28039062 33.9284375 -37.1875 34.125 C-38.02667969 34.31320312 -38.86585938 34.50140625 -39.73046875 34.6953125 C-42 35 -42 35 -45 34 C-45 33.34 -45 32.68 -45 32 C-46.41623216 31.94552953 -47.83308191 31.90699492 -49.25 31.875 C-50.03890625 31.85179687 -50.8278125 31.82859375 -51.640625 31.8046875 C-54.23064025 32.01909274 -55.73013094 32.78784312 -58 34 C-63.16743756 34.52728955 -63.16743756 34.52728955 -65.875 32.8125 C-67.34781139 30.43963721 -67.22223194 28.74086056 -67 26 C-67.66 26 -68.32 26 -69 26 C-69 23.69 -69 21.38 -69 19 C-68.34 19 -67.68 19 -67 19 C-66.94392578 17.69675781 -66.94392578 17.69675781 -66.88671875 16.3671875 C-66.23374341 4.92091388 -66.23374341 4.92091388 -63 0 C-60.69 0 -58.38 0 -56 0 C-56 0.66 -56 1.32 -56 2 C-55.34 2.66 -54.68 3.32 -54 4 C-54 5.32 -54 6.64 -54 8 C-54.66 8.66 -55.32 9.32 -56 10 C-56 11.155 -56 12.31 -56 13.5 C-56 14.655 -56 15.81 -56 17 C-56.66 17.66 -57.32 18.32 -58 19 C-58.16687448 21.58354218 -58.16687448 21.58354218 -58 24 C-56.68 24 -55.36 24 -54 24 C-51.27043961 20.39698028 -49.72383985 16.15288691 -48 12 C-47.67 11.34 -47.34 10.68 -47 10 C-46.34 10 -45.68 10 -45 10 C-44.95875 9.236875 -44.9175 8.47375 -44.875 7.6875 C-44 5 -44 5 -41.125 3.1875 C-38 2 -38 2 -35 2 C-35 1.34 -35 0.68 -35 0 C-32.58265458 -0.08117951 -30.16805051 -0.14056926 -27.75 -0.1875 C-27.06808594 -0.21263672 -26.38617187 -0.23777344 -25.68359375 -0.26367188 C-22.57225649 -0.30898261 -20.33086915 -0.1691109 -17.5390625 1.2578125 C-15.6814806 3.36055749 -15.51108459 4.29228441 -15.625 7.0625 C-16 11 -16 11 -18 13 C-18 13.99 -18 14.98 -18 16 C-18.66 16.66 -19.32 17.32 -20 18 C-20.16687448 20.58354218 -20.16687448 20.58354218 -20 23 C-18.02 23.33 -16.04 23.66 -14 24 C-13.34 22.35 -12.68 20.7 -12 19 C-11.34 19 -10.68 19 -10 19 C-9.67 16.69 -9.34 14.38 -9 12 C-8.34 12 -7.68 12 -7 12 C-7.495 10.7315625 -7.495 10.7315625 -8 9.4375 C-9.06105954 5.79010784 -9.15109013 2.77725336 -9 -1 C-5.19825711 -2.26724763 -3.6488868 -1.4750819 0 0 Z M-34 9 C-34 9.66 -34 10.32 -34 11 C-34.61875 11.45375 -35.2375 11.9075 -35.875 12.375 C-38.15758079 14.12050296 -38.97442573 15.35059981 -40 18 C-40 18.66 -40 19.32 -40 20 C-40.66 20.66 -41.32 21.32 -42 22 C-41.34 22.66 -40.68 23.32 -40 24 C-39.34 24.66 -38.68 25.32 -38 26 C-34.89480085 25.8017958 -32.73404838 25.53155228 -30.1875 23.6875 C-27.43564951 19.77697561 -27.91063736 15.64685748 -28 11 C-27.34 10.67 -26.68 10.34 -26 10 C-27.18424326 8.58422523 -27.18424326 8.58422523 -30.5625 8.9375 C-32.2640625 8.9684375 -32.2640625 8.9684375 -34 9 Z M30 34 C30 34.66 30 35.32 30 36 C31.65 36 33.3 36 35 36 C35 35.34 35 34.68 35 34 C35.66 34 36.32 34 37 34 C37 33.34 37 32.68 37 32 C33.04542152 31.65176193 33.04542152 31.65176193 30 34 Z M26 43 C26 43.99 26 44.98 26 46 C28.41619823 46.25030977 28.41619823 46.25030977 31 46 C31.66 45.01 32.32 44.02 33 43 C30.69 43 28.38 43 26 43 Z " fill="#306256" transform="translate(566,285)"/>
<path d="M0 0 C2.97 0.495 2.97 0.495 6 1 C6.05386629 3.12472576 6.09273071 5.24983652 6.125 7.375 C6.14820313 8.55835938 6.17140625 9.74171875 6.1953125 10.9609375 C6 14 6 14 4 16 C3.34 16.99 2.68 17.98 2 19 C4.64 19 7.28 19 10 19 C10 18.34 10 17.68 10 17 C14.19199071 17.47636258 16.92325347 18.03313728 20 21 C22.0067162 24.0100743 22.37781502 26.41075734 22 30 C21.34 30.66 20.68 31.32 20 32 C20 32.99 20 33.98 20 35 C19.34 35.66 18.68 36.32 18 37 C18.3185177 39.10820797 18.3185177 39.10820797 19 41 C20.485 40.505 20.485 40.505 22 40 C23.24950052 37.44598152 23.24950052 37.44598152 24.1875 34.4375 C24.53167969 33.42558594 24.87585938 32.41367187 25.23046875 31.37109375 C25.48441406 30.58863281 25.73835938 29.80617188 26 29 C26.66 29 27.32 29 28 29 C28.04125 28.0925 28.0825 27.185 28.125 26.25 C29 23 29 23 31.8125 20.625 C35 19 35 19 39 19 C39 18.34 39 17.68 39 17 C45.32504259 16.6350937 45.32504259 16.6350937 48.2109375 18.1953125 C50 20 50 20 50.4609375 22.41015625 C50.41839844 23.72306641 50.41839844 23.72306641 50.375 25.0625 C50.36210937 25.94035156 50.34921875 26.81820313 50.3359375 27.72265625 C49.90014914 30.67689593 48.50667363 31.53230127 46.375 33.5 C43.04718345 35.60177887 39.84150891 36.16767307 36 37 C36 38.65 36 40.3 36 42 C43.04207705 41.2812193 43.04207705 41.2812193 50 40 C50.33 38.68 50.66 37.36 51 36 C54.465 35.505 54.465 35.505 58 35 C58.125 37.375 58.125 37.375 58 40 C57.01 40.99 57.01 40.99 56 42 C55.57654297 42.96679688 55.57654297 42.96679688 55.14453125 43.953125 C52.8303745 48.09175345 48.33723427 49.576845 44 51 C36.9846086 51.87692392 32.01568552 51.80313678 26 48 C22.89725209 48.18996416 20.7127608 48.59907205 18 50.125 C15.10344289 51.39224374 13.00552391 50.73468362 10 50 C9 49 9 49 8.8671875 45.8671875 C8.86976563 44.54976563 8.87234375 43.23234375 8.875 41.875 C8.87242187 40.57304687 8.86984375 39.27109375 8.8671875 37.9296875 C8.99402548 34.17677559 9.3950742 30.69676878 10 27 C7.36 27.99 4.72 28.98 2 30 C2 30.66 2 31.32 2 32 C1.34 32.66 0.68 33.32 0 34 C-0.14497985 36.58064129 -0.18677545 39.04943884 -0.125 41.625 C-0.11146484 42.68460937 -0.11146484 42.68460937 -0.09765625 43.765625 C-0.07407603 45.51056098 -0.03820461 47.25532295 0 49 C-5.45769231 52.10096154 -5.45769231 52.10096154 -8.203125 51.58984375 C-8.79609375 51.39519531 -9.3890625 51.20054687 -10 51 C-10.95273019 44.30366784 -10.93450414 38.21791919 -10.25 31.5 C-10.17523438 30.61441406 -10.10046875 29.72882813 -10.0234375 28.81640625 C-9.23654923 20.69715 -7.25585225 13.96412187 -3 7 C-2.29329272 4.30745009 -2.29329272 4.30745009 -2 2 C-1.34 2 -0.68 2 0 2 C0 1.34 0 0.68 0 0 Z M36 26 C36 26.99 36 27.98 36 29 C37.32 29.33 38.64 29.66 40 30 C40.66 29.01 41.32 28.02 42 27 C40.93354885 25.70366379 40.93354885 25.70366379 38.4375 25.9375 C37.633125 25.958125 36.82875 25.97875 36 26 Z " fill="#275C4F" transform="translate(124,268)"/>
<path d="M0 0 C0 0.66 0 1.32 0 2 C0.66 2.66 1.32 3.32 2 4 C2 4.99 2 5.98 2 7 C2.66 7.66 3.32 8.32 4 9 C6.03143809 12.24743977 6.27048142 14.82569726 6.25 18.625 C6.25773437 20.06746094 6.25773437 20.06746094 6.265625 21.5390625 C6 24 6 24 4 26 C4 26.99 4 27.98 4 29 C3.34 29.66 2.68 30.32 2 31 C0.3899227 33.83200295 0.3899227 33.83200295 0 37 C-1.75 38.4375 -1.75 38.4375 -4 40 C-4.66 40.515625 -5.32 41.03125 -6 41.5625 C-12.60334181 46.30865193 -19.82127598 46.22222199 -27.6875 46.3125 C-28.54150391 46.34150391 -29.39550781 46.37050781 -30.27539062 46.40039062 C-36.49023526 46.46385722 -36.49023526 46.46385722 -39.08203125 44.10546875 C-40 42 -40 42 -40 40 C-41.65 39.34 -43.3 38.68 -45 38 C-45 36.02 -45 34.04 -45 32 C-41.535 31.505 -41.535 31.505 -38 31 C-37.67 28.69 -37.34 26.38 -37 24 C-36.34 24 -35.68 24 -35 24 C-34.505 19.545 -34.505 19.545 -34 15 C-33.34 15 -32.68 15 -32 15 C-31.9071875 13.576875 -31.9071875 13.576875 -31.8125 12.125 C-31 9 -31 9 -28.6875 7.4375 C-26 7 -26 7 -23.6875 8.25 C-22 10 -22 10 -22 12 C-22.66 12.66 -23.32 13.32 -24 14 C-24 14.825 -24 15.65 -24 16.5 C-24 17.325 -24 18.15 -24 19 C-24.66 19.66 -25.32 20.32 -26 21 C-26.14497985 23.58064129 -26.18677545 26.04943884 -26.125 28.625 C-26.11597656 29.33140625 -26.10695313 30.0378125 -26.09765625 30.765625 C-26.07407603 32.51056098 -26.03820461 34.25532295 -26 36 C-21.52273693 36.0425899 -17.40082749 35.85869805 -13 35 C-12.67 33.68 -12.34 32.36 -12 31 C-11.34 31 -10.68 31 -10 31 C-9.67 29.02 -9.34 27.04 -9 25 C-8.34 25 -7.68 25 -7 25 C-7 19.72 -7 14.44 -7 9 C-7.66 9 -8.32 9 -9 9 C-9.061875 8.38125 -9.12375 7.7625 -9.1875 7.125 C-9.8260686 4.81042916 -9.8260686 4.81042916 -12.125 3.6875 C-16.97397231 2.52796314 -21.08245004 3.74428936 -25.8125 5.0625 C-30.52774038 6.31310403 -35.1555011 6.17869053 -40 6 C-40 5.01 -40 4.02 -40 3 C-39.34 3 -38.68 3 -38 3 C-37.77957031 2.38511719 -37.55914062 1.77023437 -37.33203125 1.13671875 C-35.53397587 -1.74755191 -33.87900291 -2.12942393 -30.6875 -3.1875 C-29.74261719 -3.51105469 -28.79773438 -3.83460938 -27.82421875 -4.16796875 C-17.24108516 -7.28582138 -9.46769988 -5.45903546 0 0 Z " fill="#275C50" transform="translate(490,273)"/>
<path d="M0 0 C6.29894176 0.48453398 12.40356144 2.06833841 17.25 6.25 C18.375 8.3125 18.375 8.3125 19.25 10.25 C19.91 10.91 20.57 11.57 21.25 12.25 C21.25 13.24 21.25 14.23 21.25 15.25 C21.91 15.91 22.57 16.57 23.25 17.25 C23.515625 20.4375 23.515625 20.4375 23.5 24.25 C23.50773437 26.1371875 23.50773437 26.1371875 23.515625 28.0625 C23.25 31.25 23.25 31.25 21.25 33.25 C21.25 34.24 21.25 35.23 21.25 36.25 C20.59 36.91 19.93 37.57 19.25 38.25 C19.25 39.24 19.25 40.23 19.25 41.25 C18.59 41.91 17.93 42.57 17.25 43.25 C16.63125 43.889375 16.0125 44.52875 15.375 45.1875 C8.87256652 51.49868543 2.26056792 52.49065675 -6.5625 52.42578125 C-7.8928125 52.40064453 -7.8928125 52.40064453 -9.25 52.375 C-10.1678125 52.36597656 -11.085625 52.35695313 -12.03125 52.34765625 C-14.27111556 52.32432432 -16.51041183 52.29159235 -18.75 52.25 C-18.75 51.59 -18.75 50.93 -18.75 50.25 C-19.41 50.25 -20.07 50.25 -20.75 50.25 C-20.8428125 49.321875 -20.8428125 49.321875 -20.9375 48.375 C-21.205625 47.67375 -21.47375 46.9725 -21.75 46.25 C-22.575 45.940625 -23.4 45.63125 -24.25 45.3125 C-25.4875 44.7865625 -25.4875 44.7865625 -26.75 44.25 C-27.5625 41.625 -27.5625 41.625 -27.75 39.25 C-21 37.25 -21 37.25 -18.75 37.25 C-18.770625 36.0125 -18.79125 34.775 -18.8125 33.5 C-18.81766681 30.5859175 -18.68015558 28.04046673 -17.75 25.25 C-17.09 25.25 -16.43 25.25 -15.75 25.25 C-15.42 22.61 -15.09 19.97 -14.75 17.25 C-14.09 17.25 -13.43 17.25 -12.75 17.25 C-12.09 15.93 -11.43 14.61 -10.75 13.25 C-8.875 13.5 -8.875 13.5 -6.75 14.25 C-5.02898465 16.83152302 -4.75 18.09918025 -4.75 21.25 C-5.41 21.91 -6.07 22.57 -6.75 23.25 C-8.95826079 26.6697372 -8.90767274 29.36419975 -8.75 33.375 C-8.625 36.5703125 -8.625 36.5703125 -8.75 39.25 C-9.41 39.91 -10.07 40.57 -10.75 41.25 C-8.39729407 42.42635297 -6.929248 42.38359359 -4.3125 42.375 C-3.53003906 42.37757813 -2.74757812 42.38015625 -1.94140625 42.3828125 C0.42895347 42.33382548 0.42895347 42.33382548 3.25 41.25 C3.58 40.59 3.91 39.93 4.25 39.25 C4.91 39.25 5.57 39.25 6.25 39.25 C6.58 38.26 6.91 37.27 7.25 36.25 C7.91 36.25 8.57 36.25 9.25 36.25 C10.50105076 27.80540739 10.715748 19.67805098 9.25 11.25 C1.30051889 8.71592866 1.30051889 8.71592866 -6.53125 10.2265625 C-9.38409372 11.54248689 -11.87369141 11.67111031 -15 11.875 C-16.07765625 11.94976562 -17.1553125 12.02453125 -18.265625 12.1015625 C-19.49539062 12.17503906 -19.49539062 12.17503906 -20.75 12.25 C-20.75 10.93 -20.75 9.61 -20.75 8.25 C-20.09 8.25 -19.43 8.25 -18.75 8.25 C-18.42 7.26 -18.09 6.27 -17.75 5.25 C-12.1949575 1.85850037 -6.40211962 0.58201087 0 0 Z " fill="#35675B" transform="translate(230.75,266.75)"/>
<path d="M0 0 C1.4540625 0.0309375 1.4540625 0.0309375 2.9375 0.0625 C2.9375 0.7225 2.9375 1.3825 2.9375 2.0625 C3.5975 2.7225 4.2575 3.3825 4.9375 4.0625 C5.203125 6.375 5.203125 6.375 5.1875 9.0625 C5.19523438 10.3928125 5.19523438 10.3928125 5.203125 11.75 C4.9375 14.0625 4.9375 14.0625 2.9375 16.0625 C2.9375 16.8875 2.9375 17.7125 2.9375 18.5625 C2.9375 19.3875 2.9375 20.2125 2.9375 21.0625 C2.2775 21.7225 1.6175 22.3825 0.9375 23.0625 C0.9375 24.3825 0.9375 25.7025 0.9375 27.0625 C1.5975 27.0625 2.2575 27.0625 2.9375 27.0625 C3.2675 26.4025 3.5975 25.7425 3.9375 25.0625 C4.5975 25.0625 5.2575 25.0625 5.9375 25.0625 C6.2675 23.4125 6.5975 21.7625 6.9375 20.0625 C9.8125 19.4375 9.8125 19.4375 12.9375 19.0625 C14.9375 21.0625 14.9375 21.0625 14.9375 25.0625 C13.63605198 26.10365841 12.29911311 27.10136134 10.9375 28.0625 C10.504375 29.0525 10.504375 29.0525 10.0625 30.0625 C8.39788734 33.02181139 5.97192037 33.7431868 2.9375 35.0625 C2.9375 35.7225 2.9375 36.3825 2.9375 37.0625 C2.31875 37.51625 1.7 37.97 1.0625 38.4375 C-1.23131693 40.1915953 -1.89533089 41.47805412 -3.0625 44.0625 C-3.7225 44.7225 -4.3825 45.3825 -5.0625 46.0625 C-5.35898437 46.71605469 -5.65546875 47.36960937 -5.9609375 48.04296875 C-7.91000975 51.61626788 -11.28171063 52.89714286 -15.0625 54.0625 C-18.93930019 54.17267549 -22.38826965 53.28724345 -26.0625 52.0625 C-26.0625 51.0725 -26.0625 50.0825 -26.0625 49.0625 C-26.7225 49.0625 -27.3825 49.0625 -28.0625 49.0625 C-28.3925 46.4225 -28.7225 43.7825 -29.0625 41.0625 C-22.3125 37.0625 -22.3125 37.0625 -20.0625 37.0625 C-20.0625 36.4025 -20.0625 35.7425 -20.0625 35.0625 C-23.07740557 34.05753148 -25.10431692 33.95914697 -28.25 34 C-29.15105469 34.00902344 -30.05210937 34.01804687 -30.98046875 34.02734375 C-31.66753906 34.03894531 -32.35460937 34.05054688 -33.0625 34.0625 C-31.4125 32.4125 -29.7625 30.7625 -28.0625 29.0625 C-27.03125 29.536875 -26 30.01125 -24.9375 30.5 C-21.67715838 31.90772388 -18.60198917 32.63085498 -15.0625 33.0625 C-15.3925 34.3825 -15.7225 35.7025 -16.0625 37.0625 C-12.5975 36.5675 -12.5975 36.5675 -9.0625 36.0625 C-9.206875 35.485 -9.35125 34.9075 -9.5 34.3125 C-10.02083333 32.22916667 -10.54166667 30.14583333 -11.0625 28.0625 C-13.0425 27.7325 -15.0225 27.4025 -17.0625 27.0625 C-17.0625 26.7325 -17.0625 26.4025 -17.0625 26.0625 C-13.5975 25.5675 -13.5975 25.5675 -10.0625 25.0625 C-9.7325 22.7525 -9.4025 20.4425 -9.0625 18.0625 C-8.4025 18.0625 -7.7425 18.0625 -7.0625 18.0625 C-6.7325 14.4325 -6.4025 10.8025 -6.0625 7.0625 C-5.4025 7.0625 -4.7425 7.0625 -4.0625 7.0625 C-4.083125 6.093125 -4.10375 5.12375 -4.125 4.125 C-4.0425 0.0825 -4.0425 0.0825 0 0 Z M-21.0625 44.0625 C-21.0625 45.0525 -21.0625 46.0425 -21.0625 47.0625 C-18.64630177 47.31280977 -18.64630177 47.31280977 -16.0625 47.0625 C-15.4025 46.0725 -14.7425 45.0825 -14.0625 44.0625 C-16.3725 44.0625 -18.6825 44.0625 -21.0625 44.0625 Z " fill="#326559" transform="translate(613.0625,283.9375)"/>
<path d="M0 0 C2.4375 1.3125 2.4375 1.3125 4 3 C4 4.32 4 5.64 4 7 C3.34 7.66 2.68 8.32 2 9 C2 9.99 2 10.98 2 12 C1.34 12.66 0.68 13.32 0 14 C-0.433125 14.9590625 -0.433125 14.9590625 -0.875 15.9375 C-2.22762828 18.41731851 -3.70511457 19.38008087 -6 21 C-7.35432675 22.31200404 -8.68733482 23.64631404 -10 25 C-10.70125 25.66 -11.4025 26.32 -12.125 27 C-14.81681482 29.87126914 -15.9449226 31.78829731 -16.125 35.75 C-16.063125 36.86375 -16.063125 36.86375 -16 38 C-13.27157939 39.36421031 -11.39046682 38.87807211 -8.375 38.5625 C-6.87066406 38.40974609 -6.87066406 38.40974609 -5.3359375 38.25390625 C-4.56507813 38.17011719 -3.79421875 38.08632813 -3 38 C-2.67 36.68 -2.34 35.36 -2 34 C-0.125 33.375 -0.125 33.375 2 33 C4 35 4 35 4 39 C3.34 39.66 2.68 40.32 2 41 C1.7009375 41.65484375 1.401875 42.3096875 1.09375 42.984375 C-0.86227551 46.58905058 -4.21240388 47.78345423 -8 49 C-13.18558327 49.63655363 -17.4011954 49.63692924 -22 47 C-22 46.34 -22 45.68 -22 45 C-25.28976808 43.90341064 -26.71303767 44.20046862 -30 45 C-29.34 43.68 -28.68 42.36 -28 41 C-28.66 40.67 -29.32 40.34 -30 40 C-28.824375 38.7315625 -28.824375 38.7315625 -27.625 37.4375 C-24.13556968 32.63463243 -24.06292116 27.3838897 -23.46875 21.625 C-22.9116862 17.31703996 -21.76954957 13.94126949 -20 10 C-19.34 10 -18.68 10 -18 10 C-17.67 9.01 -17.34 8.02 -17 7 C-16.34 7 -15.68 7 -15 7 C-14.79375 6.236875 -14.5875 5.47375 -14.375 4.6875 C-11.28420846 -1.35359256 -6.04741011 -1.56784707 0 0 Z M-10 7 C-12.05270463 8.84188612 -12.05270463 8.84188612 -13 11 C-14 13 -14 13 -16 15 C-16 15.66 -16 16.32 -16 17 C-14.35 17 -12.7 17 -11 17 C-11 16.34 -11 15.68 -11 15 C-10.34 15 -9.68 15 -9 15 C-8.67 13.68 -8.34 12.36 -8 11 C-7.34 11 -6.68 11 -6 11 C-6 9.68 -6 8.36 -6 7 C-7.32 7 -8.64 7 -10 7 Z " fill="#306559" transform="translate(420,270)"/>
<path d="M0 0 C1.34830957 -0.00210699 2.69661788 -0.00535246 4.04492188 -0.00976562 C13.92034837 0.04534837 13.92034837 0.04534837 16.1875 2.3125 C16.3125 5.4375 16.3125 5.4375 16.1875 8.3125 C15.36765625 8.37308594 14.5478125 8.43367188 13.703125 8.49609375 C12.62546875 8.57988281 11.5478125 8.66367187 10.4375 8.75 C9.37015625 8.83121094 8.3028125 8.91242188 7.203125 8.99609375 C2.14542868 9.44457342 2.14542868 9.44457342 -1.8125 12.3125 C-1.97956799 14.45800973 -1.97956799 14.45800973 -1.8125 16.8125 C-1.6875 19.21875 -1.6875 19.21875 -1.8125 21.3125 C-2.4725 21.9725 -3.1325 22.6325 -3.8125 23.3125 C-3.8125 24.1375 -3.8125 24.9625 -3.8125 25.8125 C-3.8125 26.6375 -3.8125 27.4625 -3.8125 28.3125 C-4.4725 28.9725 -5.1325 29.6325 -5.8125 30.3125 C-6.02397643 32.30079925 -6.02397643 32.30079925 -5.8671875 34.55859375 C-5.84269531 35.39583984 -5.81820312 36.23308594 -5.79296875 37.09570312 C-5.72279819 38.86166214 -5.64470368 40.62732454 -5.55859375 42.39257812 C-5.38976072 48.85292451 -5.38976072 48.85292451 -7.6953125 51.359375 C-11.56597784 53.10188855 -11.56597784 53.10188855 -13.8125 53.3125 C-15.16418212 52.68386842 -16.50058601 52.02038693 -17.8125 51.3125 C-17.83936553 49.33340602 -17.85883375 47.35421029 -17.875 45.375 C-17.88660156 44.27285156 -17.89820312 43.17070312 -17.91015625 42.03515625 C-17.8125 39.3125 -17.8125 39.3125 -16.8125 38.3125 C-16.41306824 35.79054033 -16.06170152 33.28286344 -15.75 30.75 C-15.65912109 30.03908203 -15.56824219 29.32816406 -15.47460938 28.59570312 C-15.25010497 26.83511597 -15.03081603 25.07386522 -14.8125 23.3125 C-14.1525 23.3125 -13.4925 23.3125 -12.8125 23.3125 C-12.3175 18.8575 -12.3175 18.8575 -11.8125 14.3125 C-11.1525 14.3125 -10.4925 14.3125 -9.8125 14.3125 C-9.4825 12.6625 -9.1525 11.0125 -8.8125 9.3125 C-10.23055831 9.59732368 -11.64690379 9.89068144 -13.0625 10.1875 C-14.24585937 10.43113281 -14.24585937 10.43113281 -15.453125 10.6796875 C-17.82354687 11.22357598 -17.82354687 11.22357598 -19.859375 12.3828125 C-21.8125 13.3125 -21.8125 13.3125 -25.8125 13.3125 C-26.1425 11.3325 -26.4725 9.3525 -26.8125 7.3125 C-18.28505456 -0.18131569 -11.00221214 -0.13476497 0 0 Z " fill="#316458" transform="translate(101.8125,267.6875)"/>
<path d="M0 0 C0.66 0.66 1.32 1.32 2 2 C1.41992188 1.96519531 0.83984375 1.93039062 0.2421875 1.89453125 C-4.94730887 1.71469722 -8.56446758 1.97085591 -13 5 C-14.22527948 6.95021083 -14.22527948 6.95021083 -15 9 C-16.5 10.75 -16.5 10.75 -18 12 C-18.66 12 -19.32 12 -20 12 C-20.185625 13.5778125 -20.185625 13.5778125 -20.375 15.1875 C-21 19 -21 19 -22.01953125 21.40234375 C-23.07915782 24.20972091 -23.23121028 26.38867247 -23.3125 29.375 C-23.71235304 35.08828481 -25.48858057 37.58821661 -29 42 C-29 43.32 -29 44.64 -29 46 C-30.9081881 48.48064453 -33.05512867 49.96063365 -36 51 C-38.85418219 50.651929 -41.26879341 49.9104022 -44 49 C-45.66621616 48.96125079 -47.33394172 48.9549714 -49 49 C-47.6875 47.5 -47.6875 47.5 -46 46 C-45.01 46 -44.02 46 -43 46 C-43.66 44.68 -44.32 43.36 -45 42 C-45.556875 42.495 -46.11375 42.99 -46.6875 43.5 C-49.38162983 45.24754367 -50.85375007 45.26218749 -54 45 C-54.33 44.34 -54.66 43.68 -55 43 C-53.72125 42.79375 -52.4425 42.5875 -51.125 42.375 C-48.92689739 41.86652882 -48.92689739 41.86652882 -47 41 C-44.30294971 36.30947776 -44.40079166 30.33685738 -44 25 C-45.32 24.67 -46.64 24.34 -48 24 C-48 23.34 -48 22.68 -48 22 C-47.01 22 -46.02 22 -45 22 C-45 21.34 -45 20.68 -45 20 C-43.39667209 19.91878076 -41.79215974 19.86070866 -40.1875 19.8125 C-38.84751953 19.76029297 -38.84751953 19.76029297 -37.48046875 19.70703125 C-34.58352485 20.04918998 -33.77444972 20.75393573 -32 23 C-32.66 23.66 -33.32 24.32 -34 25 C-34.16729357 28.06221886 -34.16729357 28.06221886 -34 31.5 C-33.875 35.03125 -33.875 35.03125 -34 38 C-34.66 38.66 -35.32 39.32 -36 40 C-34.02 40.33 -32.04 40.66 -30 41 C-27.96834048 36.66579301 -27.47939368 32.71403788 -27 28 C-26.34 28 -25.68 28 -25 28 C-24.96261719 27.3709375 -24.92523438 26.741875 -24.88671875 26.09375 C-24.43322879 20.18948851 -23.32023086 15.44749854 -21 10 C-20.34 10 -19.68 10 -19 10 C-18.67 9.01 -18.34 8.02 -18 7 C-17.34 6.67 -16.68 6.34 -16 6 C-15.67 5.01 -15.34 4.02 -15 3 C-10.28116299 -0.18521498 -5.55998529 -0.85623774 0 0 Z " fill="#24594C" transform="translate(420,268)"/>
<path d="M0 0 C0 0.66 0 1.32 0 2 C-0.99 2 -1.98 2 -3 2 C-3 2.99 -3 3.98 -3 5 C-2.34 5.33 -1.68 5.66 -1 6 C-4.96 7.98 -4.96 7.98 -9 10 C-9 11.32 -9 12.64 -9 14 C-9.66 14.66 -10.32 15.32 -11 16 C-11.33333333 19 -11.33333333 19 -11 22 C-10.34 22.66 -9.68 23.32 -9 24 C-3.94546248 23.86038502 -3.94546248 23.86038502 -0.0625 20.9375 C0.4634375 19.9784375 0.4634375 19.9784375 1 19 C1.33 21.31 1.66 23.62 2 26 C1.071875 26.45375 0.14375 26.9075 -0.8125 27.375 C-4.03921389 28.9421633 -4.03921389 28.9421633 -7 31 C-9.04296875 31.1953125 -9.04296875 31.1953125 -11.1875 31.125 C-12.445625 31.08375 -13.70375 31.0425 -15 31 C-15.268125 30.195625 -15.53625 29.39125 -15.8125 28.5625 C-16.204375 27.716875 -16.59625 26.87125 -17 26 C-17.99 25.67 -18.98 25.34 -20 25 C-20 24.34 -20 23.68 -20 23 C-20.66 22.67 -21.32 22.34 -22 22 C-20.515 16.555 -20.515 16.555 -19 11 C-18.34 11 -17.68 11 -17 11 C-16.95875 10.278125 -16.9175 9.55625 -16.875 8.8125 C-15.63721895 4.83391804 -13.32298855 3.39255176 -10 1 C-6.52674819 -0.1577506 -3.63932552 -0.06866652 0 0 Z " fill="#23584C" transform="translate(375,288)"/>
<path d="M0 0 C3.625 0.375 3.625 0.375 7 1 C7.125 4.375 7.125 4.375 7 8 C6.34 8.66 5.68 9.32 5 10 C5 11.155 5 12.31 5 13.5 C5 14.655 5 15.81 5 17 C4.34 17.66 3.68 18.32 3 19 C3.3185177 21.10820797 3.3185177 21.10820797 4 23 C5.65 23 7.3 23 9 23 C10.66489182 19.07561214 11.87204037 15.10899581 13 11 C13.66 11 14.32 11 15 11 C15.33 9.35 15.66 7.7 16 6 C16.66 6 17.32 6 18 6 C17.08310366 8.81618163 16.17611024 11.59274506 15 14.3125 C14.0811685 16.78185965 13.67712592 18.91588821 13.25 21.5 C12.54602203 24.77431613 11.80426234 26.72634948 9.3125 29 C5.68634968 31.18937378 3.2215282 31.91881677 -1 32 C-1.66 31.34 -2.32 30.68 -3 30 C-3 29.01 -3 28.02 -3 27 C-3.66 27 -4.32 27 -5 27 C-5.02688151 25.35425434 -5.04634123 23.70838587 -5.0625 22.0625 C-5.07410156 21.14597656 -5.08570313 20.22945313 -5.09765625 19.28515625 C-5 17 -5 17 -4 16 C-3.46067708 12.41508882 -3.03332955 8.82153738 -2.59765625 5.22265625 C-2 2 -2 2 0 0 Z " fill="#3C6A5F" transform="translate(263,286)"/>
<path d="M0 0 C0 1.32 0 2.64 0 4 C0.66 4.66 1.32 5.32 2 6 C2 7.32 2 8.64 2 10 C-0.82214259 12.82214259 -3.18837047 14.72945682 -7 16 C-7.99 15.34 -8.98 14.68 -10 14 C-10.29296875 11.3984375 -10.29296875 11.3984375 -10.1875 8.375 C-10.16042969 7.37210937 -10.13335937 6.36921875 -10.10546875 5.3359375 C-10.05326172 4.17964844 -10.05326172 4.17964844 -10 3 C-9.34 3 -8.68 3 -8 3 C-8 2.01 -8 1.02 -8 0 C-4.71023192 -1.09658936 -3.28696233 -0.79953138 0 0 Z " fill="#2F6155" transform="translate(274,265)"/>
<path d="M0 0 C4.75 0.75 4.75 0.75 7 3 C8.54526333 5.66128684 9 6.84915995 9 10 C8.34 10.66 7.68 11.32 7 12 C6.0409375 13.0209375 6.0409375 13.0209375 5.0625 14.0625 C3 16 3 16 0 17 C-2.24606427 15.22555028 -2.95081002 14.41647515 -3.29296875 11.51953125 C-3.25816406 10.62621094 -3.22335937 9.73289062 -3.1875 8.8125 C-3.16042969 7.91144531 -3.13335937 7.01039063 -3.10546875 6.08203125 C-3.07066406 5.39496094 -3.03585937 4.70789063 -3 4 C-2.34 4 -1.68 4 -1 4 C-0.67 2.68 -0.34 1.36 0 0 Z " fill="#417669" transform="translate(509,264)"/>
<path d="M0 0 C0.99 0.66 1.98 1.32 3 2 C2.36449219 2.18433594 1.72898437 2.36867188 1.07421875 2.55859375 C-1.35363837 3.90686188 -1.35363837 3.90686188 -1.79296875 7.22265625 C-1.92316406 8.48980469 -2.05335938 9.75695312 -2.1875 11.0625 C-2.93394077 17.93394077 -2.93394077 17.93394077 -4 19 C-4.23287008 20.68183948 -4.41264166 22.3712416 -4.5625 24.0625 C-4.64628906 24.98160156 -4.73007812 25.90070313 -4.81640625 26.84765625 C-4.87699219 27.55792969 -4.93757813 28.26820313 -5 29 C-4.34 29 -3.68 29 -3 29 C-2.34 30.32 -1.68 31.64 -1 33 C4.62541841 32.54996653 7.61487125 31.31558515 12 28 C12.9075 28.845625 13.815 29.69125 14.75 30.5625 C19.25531346 33.86949297 23.30090986 33.09300938 28.62109375 32.39453125 C29.40613281 32.26433594 30.19117188 32.13414062 31 32 C31.495 34.475 31.495 34.475 32 37 C31.01 37 30.02 37 29 37 C29 36.34 29 35.68 29 35 C27.80375 35.226875 26.6075 35.45375 25.375 35.6875 C21.0514262 36.2507825 18.83164005 35.08241307 15 33 C11.9084458 32.69084458 9.88831857 32.5262301 7.125 34 C3.78704498 35.57080236 0.65998861 35.12199962 -3 35 C-3.33 33.68 -3.66 32.36 -4 31 C-4.66 31 -5.32 31 -6 31 C-6.02685095 28.52076199 -6.04676547 26.0418116 -6.0625 23.5625 C-6.07506836 22.50192383 -6.07506836 22.50192383 -6.08789062 21.41992188 C-6.09653588 19.61306441 -6.05220011 17.80612397 -6 16 C-5.67 15.67 -5.34 15.34 -5 15 C-4.50223184 11.96813938 -4.09896411 8.92854734 -3.6953125 5.8828125 C-2.97756154 2.90696865 -2.3689722 1.85116407 0 0 Z " fill="#BEE5DB" transform="translate(263,284)"/>
<path d="M0 0 C0.66 0.66 1.32 1.32 2 2 C1.41992188 1.96519531 0.83984375 1.93039062 0.2421875 1.89453125 C-4.94730887 1.71469722 -8.56446758 1.97085591 -13 5 C-14.22527948 6.95021083 -14.22527948 6.95021083 -15 9 C-16.5 10.75 -16.5 10.75 -18 12 C-18.66 12 -19.32 12 -20 12 C-20.12375 13.051875 -20.2475 14.10375 -20.375 15.1875 C-21 19 -21 19 -22.0234375 21.40625 C-23.07836639 24.20814113 -23.19827426 26.33395967 -23.25 29.3125 C-23.64823705 34.46862184 -24.97709587 37.65406555 -28.30078125 41.60546875 C-30 43 -30 43 -33.375 43.5 C-34.24125 43.335 -35.1075 43.17 -36 43 C-36 42.34 -36 41.68 -36 41 C-34.02 41 -32.04 41 -30 41 C-27.96834048 36.66579301 -27.47939368 32.71403788 -27 28 C-26.34 28 -25.68 28 -25 28 C-24.96261719 27.3709375 -24.92523438 26.741875 -24.88671875 26.09375 C-24.43322879 20.18948851 -23.32023086 15.44749854 -21 10 C-20.34 10 -19.68 10 -19 10 C-18.67 9.01 -18.34 8.02 -18 7 C-17.34 6.67 -16.68 6.34 -16 6 C-15.67 5.01 -15.34 4.02 -15 3 C-10.28116299 -0.18521498 -5.55998529 -0.85623774 0 0 Z " fill="#D9E2E0" transform="translate(420,268)"/>
<path d="M0 0 C1.18916016 0.01353516 1.18916016 0.01353516 2.40234375 0.02734375 C4.35169281 0.05082988 6.30088575 0.08669863 8.25 0.125 C8.25 0.785 8.25 1.445 8.25 2.125 C8.91 2.785 9.57 3.445 10.25 4.125 C9.68079834 4.10405273 9.11159668 4.08310547 8.52514648 4.06152344 C5.91278184 3.97769006 3.30070116 3.92613182 0.6875 3.875 C-0.65538086 3.82472656 -0.65538086 3.82472656 -2.02539062 3.7734375 C-8.17065362 3.68339702 -11.76471119 4.4516293 -16.75 8.125 C-18.71183059 11.20880786 -18.71183059 11.20880786 -19.75 14.125 C-20.41 14.125 -21.07 14.125 -21.75 14.125 C-21.811875 15.176875 -21.87375 16.22875 -21.9375 17.3125 C-22.90500269 21.85232031 -24.03180527 23.39832387 -27.75 26.125 C-31.0625 26.4375 -31.0625 26.4375 -33.75 26.125 C-33.75 25.795 -33.75 25.465 -33.75 25.125 C-30.285 24.63 -30.285 24.63 -26.75 24.125 C-26.42 22.475 -26.09 20.825 -25.75 19.125 C-25.09 19.125 -24.43 19.125 -23.75 19.125 C-23.42 16.815 -23.09 14.505 -22.75 12.125 C-22.09 12.125 -21.43 12.125 -20.75 12.125 C-20.729375 11.403125 -20.70875 10.68125 -20.6875 9.9375 C-19.30644299 5.79432896 -16.40909877 4.28409555 -12.75 2.125 C-12.19441406 1.74988281 -11.63882812 1.37476563 -11.06640625 0.98828125 C-7.43155564 -0.36635954 -3.84166127 -0.08282188 0 0 Z " fill="#A6BCB7" transform="translate(377.75,284.875)"/>
<path d="M0 0 C1.98 0.66 3.96 1.32 6 2 C6.10815225 3.76949095 6.18566083 5.54087487 6.25 7.3125 C6.29640625 8.29863281 6.3428125 9.28476562 6.390625 10.30078125 C6 13 6 13 4.171875 14.79296875 C2 16 2 16 -1 17 C-3.69101234 14.30898766 -3.29887549 12.80924054 -3.3125 9.0625 C-3.32925781 8.00160156 -3.34601563 6.94070313 -3.36328125 5.84765625 C-3 3 -3 3 -1.48046875 1.12109375 C-0.99191406 0.75113281 -0.50335938 0.38117188 0 0 Z " fill="#568177" transform="translate(326,264)"/>
<path d="M0 0 C0.763125 0.20625 1.52625 0.4125 2.3125 0.625 C1.9825 3.265 1.6525 5.905 1.3125 8.625 C0.6525 8.625 -0.0075 8.625 -0.6875 8.625 C-0.73648438 9.34945313 -0.78546875 10.07390625 -0.8359375 10.8203125 C-0.91070312 11.78710938 -0.98546875 12.75390625 -1.0625 13.75 C-1.13210937 14.70132812 -1.20171875 15.65265625 -1.2734375 16.6328125 C-1.6875 19.625 -1.6875 19.625 -2.6875 22.4375 C-3.95700774 26.48405593 -4.14100386 30.28405327 -4.3125 34.5 C-4.35117188 35.28375 -4.38984375 36.0675 -4.4296875 36.875 C-4.52316622 38.79131367 -4.60638495 40.70812319 -4.6875 42.625 C-3.0375 43.285 -1.3875 43.945 0.3125 44.625 C-2.26606865 45.54591738 -3.2818287 45.81006902 -5.828125 44.6484375 C-6.44171875 44.31070313 -7.0553125 43.97296875 -7.6875 43.625 C-7.71436553 41.64590602 -7.73383375 39.66671029 -7.75 37.6875 C-7.76160156 36.58535156 -7.77320312 35.48320312 -7.78515625 34.34765625 C-7.6875 31.625 -7.6875 31.625 -6.6875 30.625 C-6.28806824 28.10304033 -5.93670152 25.59536344 -5.625 23.0625 C-5.53412109 22.35158203 -5.44324219 21.64066406 -5.34960938 20.90820312 C-5.12510497 19.14761597 -4.90581603 17.38636522 -4.6875 15.625 C-4.0275 15.625 -3.3675 15.625 -2.6875 15.625 C-2.3575 12.655 -2.0275 9.685 -1.6875 6.625 C-1.0275 6.625 -0.3675 6.625 0.3125 6.625 C0.6425 4.975 0.9725 3.325 1.3125 1.625 C-0.9975 1.625 -3.3075 1.625 -5.6875 1.625 C-2.6875 -0.375 -2.6875 -0.375 0 0 Z " fill="#CEDFDB" transform="translate(91.6875,275.375)"/>
<path d="M0 0 C0.85980469 0.07863281 1.71960938 0.15726562 2.60546875 0.23828125 C4.8125 0.6875 4.8125 0.6875 6.8125 2.6875 C5.79671875 2.62949219 4.7809375 2.57148438 3.734375 2.51171875 C-5.34603384 2.15434431 -13.25497689 2.59519312 -21.1875 7.6875 C-21.5175 8.6775 -21.8475 9.6675 -22.1875 10.6875 C-21.29289062 10.39875 -20.39828125 10.11 -19.4765625 9.8125 C-4.68424923 5.27072364 -4.68424923 5.27072364 1.8125 6.6875 C3.58203125 8.21484375 3.58203125 8.21484375 4.8125 9.6875 C4.20664062 9.58050781 3.60078125 9.47351563 2.9765625 9.36328125 C-2.95379762 8.51478357 -7.02638385 9.02111817 -12.6484375 10.984375 C-16.80756489 12.13613335 -20.91010205 11.93322286 -25.1875 11.6875 C-25.1875 10.6975 -25.1875 9.7075 -25.1875 8.6875 C-24.5275 8.6875 -23.8675 8.6875 -23.1875 8.6875 C-22.96707031 8.07261719 -22.74664062 7.45773437 -22.51953125 6.82421875 C-20.72147587 3.93994809 -19.06650291 3.55807607 -15.875 2.5 C-14.93011719 2.17644531 -13.98523438 1.85289062 -13.01171875 1.51953125 C-8.46796929 0.18091626 -4.73469034 -0.47991566 0 0 Z " fill="#C7E3DC" transform="translate(475.1875,267.3125)"/>
<path d="M0 0 C2.97 0.495 2.97 0.495 6 1 C6 1.33 6 1.66 6 2 C4.35 2 2.7 2 1 2 C0.87625 2.7425 0.7525 3.485 0.625 4.25 C0.04513299 6.80141485 -0.73708739 8.7267573 -2 11 C-2.66 11 -3.32 11 -4 11 C-4.185625 12.2684375 -4.185625 12.2684375 -4.375 13.5625 C-5.02397285 17.13185067 -6.00386697 20.51353441 -7 24 C-8.11407416 29.43008 -8.32223934 34.85294346 -8.5625 40.375 C-8.60568359 41.30183594 -8.64886719 42.22867188 -8.69335938 43.18359375 C-8.79876186 45.45560294 -8.90088606 47.72770925 -9 50 C-7.35 50 -5.7 50 -4 50 C-4.66 50.66 -5.32 51.32 -6 52 C-8.125 51.625 -8.125 51.625 -10 51 C-10.95273019 44.30366784 -10.93450414 38.21791919 -10.25 31.5 C-10.17523438 30.61441406 -10.10046875 29.72882813 -10.0234375 28.81640625 C-9.23654923 20.69715 -7.25585225 13.96412187 -3 7 C-2.29329272 4.30745009 -2.29329272 4.30745009 -2 2 C-1.34 2 -0.68 2 0 2 C0 1.34 0 0.68 0 0 Z " fill="#CCDBD8" transform="translate(124,268)"/>
<path d="M0 0 C3.1875 0.875 3.1875 0.875 6 2 C6 2.99 6 3.98 6 5 C5.01 5.33 4.02 5.66 3 6 C3 4.68 3 3.36 3 2 C1.35 2.33 -0.3 2.66 -2 3 C-2.12375 3.886875 -2.2475 4.77375 -2.375 5.6875 C-3 9 -3 9 -3.9765625 11.31640625 C-5.48221941 15.26444556 -5.86798906 19.28349132 -6.4375 23.453125 C-6.623125 24.29359375 -6.80875 25.1340625 -7 26 C-9.95664519 27.4783226 -12.74229737 27.06032783 -16 27 C-14.02 29.97 -14.02 29.97 -12 33 C-13.65 32.34 -15.3 31.68 -17 31 C-17 29.02 -17 27.04 -17 25 C-13.535 24.505 -13.535 24.505 -10 24 C-9.67 21.69 -9.34 19.38 -9 17 C-8.34 17 -7.68 17 -7 17 C-6.67 14.03 -6.34 11.06 -6 8 C-5.34 8 -4.68 8 -4 8 C-3.8453125 6.576875 -3.8453125 6.576875 -3.6875 5.125 C-3 2 -3 2 0 0 Z " fill="#C2D7D2" transform="translate(462,280)"/>
<path d="M0 0 C0 0.66 0 1.32 0 2 C2.57816887 3.6857258 3.87530993 4.00779313 7 3.8125 C10.01551116 3.2061823 10.01551116 3.2061823 12.0625 1.375 C14 0 14 0 16.75 0.3125 C17.86375 0.6528125 17.86375 0.6528125 19 1 C19.495 2.485 19.495 2.485 20 4 C22.475 4.495 22.475 4.495 25 5 C24.34 5.66 23.68 6.32 23 7 C20.375 6.625 20.375 6.625 18 6 C17.505 4.515 17.505 4.515 17 3 C12.92035719 4.30155006 12.92035719 4.30155006 9 6 C6.6670134 6.04022391 4.33293334 6.04320247 2 6 C1.67 5.34 1.34 4.68 1 4 C-1.85609215 4.45096192 -4.69348324 4.93346923 -7.51953125 5.546875 C-8.39996094 5.73765625 -9.28039062 5.9284375 -10.1875 6.125 C-11.02667969 6.31320312 -11.86585938 6.50140625 -12.73046875 6.6953125 C-15 7 -15 7 -18 6 C-18 5.34 -18 4.68 -18 4 C-17.02160156 4.06960938 -17.02160156 4.06960938 -16.0234375 4.140625 C-9.46785134 4.41135717 -5.26100745 0 0 0 Z " fill="#BCEDE0" transform="translate(539,313)"/>
<path d="M0 0 C1.32 0.33 2.64 0.66 4 1 C2.68 1.33 1.36 1.66 0 2 C-0.33 3.32 -0.66 4.64 -1 6 C-1.66 6 -2.32 6 -3 6 C-3.12375 7.19625 -3.2475 8.3925 -3.375 9.625 C-3.82656183 13.28910167 -4.78544278 16.50814799 -6 20 C-6.165 21.093125 -6.33 22.18625 -6.5 23.3125 C-6.665 24.199375 -6.83 25.08625 -7 26 C-9.70879335 27.35439668 -12.00933268 27.06501451 -15 27 C-15 27.99 -15 28.98 -15 30 C-13.68 30.66 -12.36 31.32 -11 32 C-14 32 -14 32 -17 30 C-16.67 28.35 -16.34 26.7 -16 25 C-12.04 24.505 -12.04 24.505 -8 24 C-8.020625 22.7625 -8.04125 21.525 -8.0625 20.25 C-8.06766681 17.3359175 -7.93015558 14.79046673 -7 12 C-6.34 12 -5.68 12 -5 12 C-4.67 9.36 -4.34 6.72 -4 4 C-3.34 4 -2.68 4 -2 4 C-1.34 2.68 -0.68 1.36 0 0 Z " fill="#DFE6E4" transform="translate(220,280)"/>
<path d="M0 0 C0.66 0.33 1.32 0.66 2 1 C1.27683594 1.81404297 1.27683594 1.81404297 0.5390625 2.64453125 C-0.09257813 3.35996094 -0.72421875 4.07539063 -1.375 4.8125 C-2.00148438 5.52019531 -2.62796875 6.22789062 -3.2734375 6.95703125 C-5.140599 9.08803819 -5.140599 9.08803819 -7 12 C-7.66 12 -8.32 12 -9 12 C-9.15855469 12.60328125 -9.31710937 13.2065625 -9.48046875 13.828125 C-10.6527157 17.84355654 -11.55001271 20.5153983 -14.4375 23.625 C-17 25 -17 25 -19.3125 24.75 C-19.869375 24.5025 -20.42625 24.255 -21 24 C-21 23.67 -21 23.34 -21 23 C-20.236875 22.938125 -19.47375 22.87625 -18.6875 22.8125 C-15.85747427 22.24268598 -15.85747427 22.24268598 -14.375 19.875 C-12.81640558 16.61612076 -11.38502036 13.33663996 -10 10 C-9.67 9.34 -9.34 8.68 -9 8 C-8.34 8 -7.68 8 -7 8 C-6.95875 7.236875 -6.9175 6.47375 -6.875 5.6875 C-6 3 -6 3 -3.0625 1.125 C-2.051875 0.75375 -1.04125 0.3825 0 0 Z " fill="#386459" transform="translate(528,287)"/>
<path d="M0 0 C4.90567888 -0.28301994 7.24528933 -0.16492205 11 3 C9.69675781 3.03867187 9.69675781 3.03867187 8.3671875 3.078125 C-0.68246212 3.28353896 -0.68246212 3.28353896 -8 8 C-9.19514096 10.44131997 -10.15483399 12.89549498 -11.07421875 15.453125 C-12.37274563 19.02544367 -13.8095907 21.88032615 -16 25 C-18.75 25.9375 -18.75 25.9375 -21 26 C-21.33 25.34 -21.66 24.68 -22 24 C-21.22269531 23.94972656 -20.44539062 23.89945312 -19.64453125 23.84765625 C-16.76883549 23.2614613 -16.76883549 23.2614613 -15.63671875 20.49609375 C-15.32347656 19.48675781 -15.01023438 18.47742188 -14.6875 17.4375 C-14.36136719 16.42558594 -14.03523437 15.41367187 -13.69921875 14.37109375 C-13.46847656 13.58863281 -13.23773438 12.80617188 -13 12 C-12.34 12 -11.68 12 -11 12 C-10.95875 11.0925 -10.9175 10.185 -10.875 9.25 C-10 6 -10 6 -7.1875 3.625 C-4 2 -4 2 0 2 C0 1.34 0 0.68 0 0 Z " fill="#E0E7E5" transform="translate(163,285)"/>
<path d="M0 0 C2 1 2 1 2.61328125 2.60546875 C3.13867621 5.8586719 3.17094271 9.01759855 3.1875 12.3125 C3.20167969 13.58738281 3.21585938 14.86226563 3.23046875 16.17578125 C2.9439631 20.92983255 2.48066519 25.17820116 -0.59375 28.9609375 C-5.75387633 32.78873613 -10.4976499 34.53080409 -17 34 C-19.296875 33 -19.296875 33 -21 32 C-20.67 31.34 -20.34 30.68 -20 30 C-19.34 30.33 -18.68 30.66 -18 31 C-16.52331663 31.0952699 -15.04224543 31.12985959 -13.5625 31.125 C-12.78003906 31.12757813 -11.99757812 31.13015625 -11.19140625 31.1328125 C-8.82104653 31.08382548 -8.82104653 31.08382548 -6 30 C-5.67 29.34 -5.34 28.68 -5 28 C-4.34 28 -3.68 28 -3 28 C-2.67 27.01 -2.34 26.02 -2 25 C-1.34 25 -0.68 25 0 25 C1.25105076 16.55540739 1.465748 8.42805098 0 0 Z " fill="#DDE6E3" transform="translate(240,278)"/>
<path d="M0 0 C2.31 0 4.62 0 7 0 C7 0.33 7 0.66 7 1 C5.576875 1.3403125 5.576875 1.3403125 4.125 1.6875 C0.89863937 2.68023802 0.89863937 2.68023802 -0.3125 5.1875 C-2.22551721 13.01347948 -2.59611523 20.95749616 -2 29 C-0.33045181 32.22404978 -0.33045181 32.22404978 2.625 32.6875 C3.40875 32.790625 4.1925 32.89375 5 33 C5 33.33 5 33.66 5 34 C-0.42857143 34.36190476 -0.42857143 34.36190476 -2.875 32.8125 C-4.34781139 30.43963721 -4.22223194 28.74086056 -4 26 C-4.66 26 -5.32 26 -6 26 C-6 23.69 -6 21.38 -6 19 C-5.34 19 -4.68 19 -4 19 C-3.94392578 17.69675781 -3.94392578 17.69675781 -3.88671875 16.3671875 C-3.23374341 4.92091388 -3.23374341 4.92091388 0 0 Z " fill="#DBE9E5" transform="translate(503,285)"/>
<path d="M0 0 C0 0.33 0 0.66 0 1 C-7.425 2.485 -7.425 2.485 -15 4 C-14.3503125 5.918125 -14.3503125 5.918125 -13.6875 7.875 C-13.44386719 8.59429687 -13.20023437 9.31359375 -12.94921875 10.0546875 C-12.03664453 12.33994905 -12.03664453 12.33994905 -9 14 C-4.3397565 14.34520322 -1.25864225 13.77443427 3 12 C3.99 12.33 4.98 12.66 6 13 C0.80726472 16.29675019 -2.89810328 17.44310713 -9.01953125 16.5546875 C-11 16 -11 16 -14 14 C-14 13.34 -14 12.68 -14 12 C-14.66 12 -15.32 12 -16 12 C-16.08096803 10.54257537 -16.13917774 9.08387193 -16.1875 7.625 C-16.22230469 6.81289063 -16.25710938 6.00078125 -16.29296875 5.1640625 C-16.19628906 4.44992187 -16.09960938 3.73578125 -16 3 C-10.85913339 -0.42724441 -5.99202204 -0.1015597 0 0 Z " fill="#D4E8E3" transform="translate(292,321)"/>
<path d="M0 0 C1.0725 0.2475 2.145 0.495 3.25 0.75 C3.54093123 5.01174942 2.59897832 7.96390945 0.9375 11.875 C0.50824219 12.90882813 0.07898438 13.94265625 -0.36328125 15.0078125 C-1.62882344 17.51037763 -2.52726614 19.07440063 -4.75 20.75 C-7.84501208 21.00265405 -9.95129973 21.14935013 -12.75 19.75 C-12.42 19.09 -12.09 18.43 -11.75 17.75 C-10.6053125 18.059375 -10.6053125 18.059375 -9.4375 18.375 C-6.53114056 19.08391203 -6.53114056 19.08391203 -3.75 16.75 C-3.02034634 14.18717258 -3.02034634 14.18717258 -2.75 11.75 C-2.09 11.75 -1.43 11.75 -0.75 11.75 C-0.42 9.44 -0.09 7.13 0.25 4.75 C0.91 4.75 1.57 4.75 2.25 4.75 C1.92 4.09 1.59 3.43 1.25 2.75 C-3.205 3.245 -3.205 3.245 -7.75 3.75 C-5.15187156 0.32047046 -4.43092205 -0.2953948 0 0 Z " fill="#CCE4DE" transform="translate(297.75,291.25)"/>
<path d="M0 0 C5.94 0 11.88 0 18 0 C16.68 0.33 15.36 0.66 14 1 C14 1.66 14 2.32 14 3 C13.04738281 3.03738281 12.09476562 3.07476562 11.11328125 3.11328125 C9.85902344 3.17902344 8.60476563 3.24476563 7.3125 3.3125 C6.07113281 3.37050781 4.82976562 3.42851562 3.55078125 3.48828125 C-0.08628434 4.01243482 -1.96162497 5.04558579 -5 7 C-5.66 6.67 -6.32 6.34 -7 6 C-5.1875 4 -5.1875 4 -3 2 C-2.01 2 -1.02 2 0 2 C0 1.34 0 0.68 0 0 Z " fill="#F0F3F2" transform="translate(288,285)"/>
<path d="M0 0 C0 0.66 0 1.32 0 2 C0.66 2 1.32 2 2 2 C1.88487847 3.72985242 1.75744323 5.45888751 1.625 7.1875 C1.55539062 8.15042969 1.48578125 9.11335938 1.4140625 10.10546875 C0.85415835 14.01951565 0.01091019 16.98908981 -2.8125 19.8125 C-5.39996882 21.21712593 -7.09806958 21.24182753 -10 21 C-8.31611625 19.87741083 -6.62011059 18.77108327 -4.88671875 17.7265625 C-2.36500616 15.41890833 -2.25845 13.72183266 -1.8125 10.375 C-1.06717557 5.06717557 -1.06717557 5.06717557 0 4 C-2.31 3.67 -4.62 3.34 -7 3 C-4.49955934 -0.00052879 -4.2621484 0 0 0 Z " fill="#CAE2DC" transform="translate(539,291)"/>
<path d="M0 0 C1.4540625 0.0309375 1.4540625 0.0309375 2.9375 0.0625 C0.9375 2.0625 0.9375 2.0625 -2.0625 3.0625 C-2.3925 5.0425 -2.7225 7.0225 -3.0625 9.0625 C-3.7225 9.0625 -4.3825 9.0625 -5.0625 9.0625 C-5.08828125 9.6915625 -5.1140625 10.320625 -5.140625 10.96875 C-5.53365234 16.89988993 -6.29979258 22.265671 -10.0625 27.0625 C-12.6875 28.1875 -12.6875 28.1875 -15.0625 28.0625 C-15.7225 27.4025 -16.3825 26.7425 -17.0625 26.0625 C-13.5975 25.5675 -13.5975 25.5675 -10.0625 25.0625 C-9.7325 22.7525 -9.4025 20.4425 -9.0625 18.0625 C-8.4025 18.0625 -7.7425 18.0625 -7.0625 18.0625 C-6.7325 14.4325 -6.4025 10.8025 -6.0625 7.0625 C-5.4025 7.0625 -4.7425 7.0625 -4.0625 7.0625 C-4.083125 6.093125 -4.10375 5.12375 -4.125 4.125 C-4.0425 0.0825 -4.0425 0.0825 0 0 Z " fill="#DFE6E5" transform="translate(613.0625,283.9375)"/>
<path d="M0 0 C1.7409422 5.7761493 1.41806842 12.03873947 -1.1953125 17.49609375 C-2.65959857 19.64652434 -3.98874825 21.3493865 -6 23 C-9.375 23.5 -9.375 23.5 -12 23 C-12 22.34 -12 21.68 -12 21 C-10.02 21 -8.04 21 -6 21 C-3.96834048 16.66579301 -3.47939368 12.71403788 -3 8 C-2.34 8 -1.68 8 -1 8 C-1.020625 7.05125 -1.04125 6.1025 -1.0625 5.125 C-1 2 -1 2 0 0 Z " fill="#D6DFDD" transform="translate(396,288)"/>
<path d="M0 0 C0.66 0.33 1.32 0.66 2 1 C1.51789063 1.37511719 1.03578125 1.75023437 0.5390625 2.13671875 C-3.12850346 5.10819566 -5.74618833 7.26337814 -7 12 C-7.66 12 -8.32 12 -9 12 C-9.061875 13.051875 -9.12375 14.10375 -9.1875 15.1875 C-10.15500269 19.72732031 -11.28180527 21.27332387 -15 24 C-18.3125 24.3125 -18.3125 24.3125 -21 24 C-21 23.67 -21 23.34 -21 23 C-17.535 22.505 -17.535 22.505 -14 22 C-13.67 20.35 -13.34 18.7 -13 17 C-12.34 17 -11.68 17 -11 17 C-10.67 14.69 -10.34 12.38 -10 10 C-9.34 10 -8.68 10 -8 10 C-7.979375 9.278125 -7.95875 8.55625 -7.9375 7.8125 C-6.55987495 3.67962484 -3.60643381 2.21282492 0 0 Z " fill="#DEE5E4" transform="translate(365,287)"/>
<path d="M0 0 C0.66 0 1.32 0 2 0 C5.97663781 7.45619589 5.82506483 14.84608131 4 23 C3.34 23 2.68 23 2 23 C1.9175 23.763125 1.835 24.52625 1.75 25.3125 C0.85384206 28.52373261 -0.21611025 29.29374499 -3 31 C-2.67 29.68 -2.34 28.36 -2 27 C-1.34 27 -0.68 27 0 27 C0.33 25.02 0.66 23.04 1 21 C1.66 21 2.32 21 3 21 C3 15.72 3 10.44 3 5 C2.34 5 1.68 5 1 5 C0.67 3.35 0.34 1.7 0 0 Z " fill="#D2DCDA" transform="translate(480,277)"/>
<path d="M0 0 C0 0.33 0 0.66 0 1 C-1.98 1.33 -3.96 1.66 -6 2 C-7.1577506 5.47325181 -7.06866652 8.36067448 -7 12 C-4.69 12 -2.38 12 0 12 C-2.38573379 13.89213369 -4.07175348 15.02391783 -7 16 C-7.99 15.34 -8.98 14.68 -10 14 C-10.29296875 11.3984375 -10.29296875 11.3984375 -10.1875 8.375 C-10.16042969 7.37210937 -10.13335937 6.36921875 -10.10546875 5.3359375 C-10.05326172 4.17964844 -10.05326172 4.17964844 -10 3 C-9.34 3 -8.68 3 -8 3 C-8 2.01 -8 1.02 -8 0 C-4.71023192 -1.09658936 -3.28696233 -0.79953138 0 0 Z " fill="#D8E8E4" transform="translate(274,265)"/>
<path d="M0 0 C0.66 0 1.32 0 2 0 C2.2361959 6.40353322 1.823321 11.84629161 0 18 C-0.66 18 -1.32 18 -2 18 C-2.2475 18.639375 -2.495 19.27875 -2.75 19.9375 C-4 22 -4 22 -6 22.8125 C-8 23 -8 23 -10 22 C-10 21.34 -10 20.68 -10 20 C-8.02 20 -6.04 20 -4 20 C-3.67 18.68 -3.34 17.36 -3 16 C-2.34 16 -1.68 16 -1 16 C-0.67 10.72 -0.34 5.44 0 0 Z " fill="#DFEAE7" transform="translate(588,288)"/>
<path d="M0 0 C0.8971875 0.5259375 0.8971875 0.5259375 1.8125 1.0625 C0.1625 1.3925 -1.4875 1.7225 -3.1875 2.0625 C-3.5175 3.3825 -3.8475 4.7025 -4.1875 6.0625 C-3.5275 6.0625 -2.8675 6.0625 -2.1875 6.0625 C-1.81188831 12.19749089 -2.06654209 16.68153809 -5.1875 22.0625 C-7.875 24 -7.875 24 -10.1875 25.0625 C-9.5275 23.4125 -8.8675 21.7625 -8.1875 20.0625 C-7.5275 20.0625 -6.8675 20.0625 -6.1875 20.0625 C-5.8575 17.7525 -5.5275 15.4425 -5.1875 13.0625 C-4.5275 13.0625 -3.8675 13.0625 -3.1875 13.0625 C-3.5175 12.216875 -3.8475 11.37125 -4.1875 10.5 C-5.24855954 6.85260784 -5.33859013 3.83975336 -5.1875 0.0625 C-2.1875 -0.9375 -2.1875 -0.9375 0 0 Z " fill="#E6ECEA" transform="translate(562.1875,283.9375)"/>
<path d="M0 0 C1.66611905 -0.042721 3.33382885 -0.04063832 5 0 C5.33 0.33 5.66 0.66 6 1 C5.90913549 3.53541298 5.7629055 6.03554784 5.5625 8.5625 C5.51029297 9.27341797 5.45808594 9.98433594 5.40429688 10.71679688 C5.27425893 12.47821999 5.13773103 14.23916173 5 16 C4.34 16 3.68 16 3 16 C2.896875 16.61875 2.79375 17.2375 2.6875 17.875 C2 20 2 20 -1 22 C-3.6875 22.125 -3.6875 22.125 -6 22 C-6.33 21.34 -6.66 20.68 -7 20 C-5.72125 19.79375 -4.4425 19.5875 -3.125 19.375 C-0.92689739 18.86652882 -0.92689739 18.86652882 1 18 C3.69705029 13.30947776 3.59920834 7.33685738 4 2 C2.68 1.34 1.36 0.68 0 0 Z " fill="#D3E1DD" transform="translate(372,291)"/>
<path d="M0 0 C4.72157773 1.65893271 4.72157773 1.65893271 6.25 3.53125 C8.88786914 5.74517589 11.30402785 5.52000138 14.6875 5.6875 C15.86699219 5.75324219 17.04648437 5.81898438 18.26171875 5.88671875 C19.16535156 5.92410156 20.06898438 5.96148437 21 6 C19 8 19 8 16.7578125 8.265625 C15.88898438 8.26046875 15.02015625 8.2553125 14.125 8.25 C13.26132812 8.25515625 12.39765625 8.2603125 11.5078125 8.265625 C8.89526423 7.98890649 7.2499912 7.3185995 5 6 C5 5.34 5 4.68 5 4 C1.71023192 2.90341064 0.28696233 3.20046862 -3 4 C-2.01 2.68 -1.02 1.36 0 0 Z " fill="#BAE0D6" transform="translate(393,311)"/>
<path d="M0 0 C0.66 0.33 1.32 0.66 2 1 C1.22639868 9.62965616 -0.08238903 16.41985752 -6 23 C-9 25 -9 25 -13 25 C-13 24.34 -13 23.68 -13 23 C-12.071875 22.773125 -11.14375 22.54625 -10.1875 22.3125 C-6.27655694 20.70211168 -5.67913335 19.83801909 -4 16 C-2.18471839 10.74708366 -0.72656324 5.52188059 0 0 Z " fill="#E2EBE9" transform="translate(317,288)"/>
<path d="M0 0 C2.4375 0.375 2.4375 0.375 4.4375 2.375 C4.23325186 4.21323324 4.01611576 6.05094539 3.734375 7.87890625 C3.05423222 13.59747512 2.60586592 19.88009775 4.4375 25.375 C3.4475 25.045 2.4575 24.715 1.4375 24.375 C1.41023073 22.02075325 1.39053281 19.66683038 1.375 17.3125 C1.36339844 16.00152344 1.35179687 14.69054687 1.33984375 13.33984375 C1.43297665 9.5586481 1.82301274 6.09579293 2.4375 2.375 C-0.2025 3.035 -2.8425 3.695 -5.5625 4.375 C-3.24697412 0.47516694 -3.24697412 0.47516694 0 0 Z " fill="#CFE3DE" transform="translate(131.5625,292.625)"/>
<path d="M0 0 C0.99 0.66 1.98 1.32 3 2 C2.36449219 2.18433594 1.72898437 2.36867188 1.07421875 2.55859375 C-1.35363837 3.90686188 -1.35363837 3.90686188 -1.79296875 7.22265625 C-1.92316406 8.48980469 -2.05335938 9.75695312 -2.1875 11.0625 C-2.93394077 17.93394077 -2.93394077 17.93394077 -4 19 C-4.07244053 21.01964199 -4.08377188 23.04167124 -4.0625 25.0625 C-4.05347656 26.16722656 -4.04445313 27.27195312 -4.03515625 28.41015625 C-4.02355469 29.26480469 -4.01195312 30.11945313 -4 31 C-4.66 31 -5.32 31 -6 31 C-6.02685095 28.52076199 -6.04676547 26.0418116 -6.0625 23.5625 C-6.07506836 22.50192383 -6.07506836 22.50192383 -6.08789062 21.41992188 C-6.09653588 19.61306441 -6.05220011 17.80612397 -6 16 C-5.67 15.67 -5.34 15.34 -5 15 C-4.50223184 11.96813938 -4.09896411 8.92854734 -3.6953125 5.8828125 C-2.97756154 2.90696865 -2.3689722 1.85116407 0 0 Z " fill="#E0E7E5" transform="translate(263,284)"/>
<path d="M0 0 C1.546875 0.7115625 1.546875 0.7115625 3.125 1.4375 C6.38534162 2.84522388 9.46051083 3.56835498 13 4 C13 4.99 13 5.98 13 7 C11.35 7.33 9.7 7.66 8 8 C8 7.34 8 6.68 8 6 C4.98509443 4.99503148 2.95818308 4.89664697 -0.1875 4.9375 C-1.08855469 4.94652344 -1.98960937 4.95554687 -2.91796875 4.96484375 C-3.94857422 4.98224609 -3.94857422 4.98224609 -5 5 C-3.35 3.35 -1.7 1.7 0 0 Z " fill="#8FDCC9" transform="translate(585,313)"/>
<path d="M0 0 C0 1.65 0 3.3 0 5 C-0.99 5.33 -1.98 5.66 -3 6 C-3 4.02 -3 2.04 -3 0 C-5.383318 2.29504697 -7.49361826 4.62865915 -9.5 7.25 C-10.325 8.1575 -11.15 9.065 -12 10 C-13.32 10 -14.64 10 -16 10 C-16 9.01 -16 8.02 -16 7 C-14.68 7 -13.36 7 -12 7 C-11.67 6.34 -11.34 5.68 -11 5 C-10.34 5 -9.68 5 -9 5 C-8.814375 3.7934375 -8.814375 3.7934375 -8.625 2.5625 C-8.41875 1.716875 -8.2125 0.87125 -8 0 C-5.13822943 -1.43088528 -3.06624227 -0.59991697 0 0 Z " fill="#E2F2EE" transform="translate(628,304)"/>
<path d="M0 0 C2.75 -0.1875 2.75 -0.1875 6 0 C6.8353125 0.75796875 6.8353125 0.75796875 7.6875 1.53125 C11.11949739 3.71103213 14.36999779 3.07481471 18.25 2.6875 C19.36761719 2.5956543 19.36761719 2.5956543 20.5078125 2.50195312 C22.33982155 2.3492857 24.17014316 2.17660246 26 2 C22.59568169 5.1462893 20.13211366 5.40669674 15.5625 5.375 C14.45003906 5.38273437 13.33757812 5.39046875 12.19140625 5.3984375 C8.70028572 4.96258157 6.86195967 3.98636012 4 2 C2.67391178 1.31903578 1.34313399 0.64669414 0 0 Z " fill="#C0E8DE" transform="translate(146,314)"/>
<path d="M0 0 C0.66 0 1.32 0 2 0 C1.85950482 1.47968324 1.71245174 2.95874516 1.5625 4.4375 C1.48128906 5.26121094 1.40007812 6.08492188 1.31640625 6.93359375 C1 9 1 9 0 10 C-2.33297433 10.04092937 -4.66705225 10.04241723 -7 10 C-5.02 12.97 -5.02 12.97 -3 16 C-5.475 15.01 -5.475 15.01 -8 14 C-8 12.02 -8 10.04 -8 8 C-4.535 7.505 -4.535 7.505 -1 7 C-0.67 4.69 -0.34 2.38 0 0 Z " fill="#D0E1DD" transform="translate(453,297)"/>
<path d="M0 0 C0.33 1.32 0.66 2.64 1 4 C-0.6875 5.5625 -0.6875 5.5625 -3 7 C-5.75 6.6875 -5.75 6.6875 -8 6 C-7.67 5.34 -7.34 4.68 -7 4 C-5.68 4 -4.36 4 -3 4 C-2.67 3.34 -2.34 2.68 -2 2 C-4.31 2.33 -6.62 2.66 -9 3 C-9 2.34 -9 1.68 -9 1 C-6.04335481 -0.4783226 -3.25770263 -0.06032783 0 0 Z " fill="#B0DBD1" transform="translate(291,326)"/>
<path d="M0 0 C0.66 0.33 1.32 0.66 2 1 C1.28924662 2.92357084 0.55554122 4.83866934 -0.1875 6.75 C-0.59355469 7.81734375 -0.99960937 8.8846875 -1.41796875 9.984375 C-3.17778957 13.33889765 -4.83470279 14.95658028 -8 17 C-10.3125 16.75 -10.3125 16.75 -12 16 C-12 15.67 -12 15.34 -12 15 C-11.236875 14.938125 -10.47375 14.87625 -9.6875 14.8125 C-6.85747427 14.24268598 -6.85747427 14.24268598 -5.375 11.875 C-3.81640558 8.61612076 -2.38502036 5.33663996 -1 2 C-0.67 1.34 -0.34 0.68 0 0 Z " fill="#DEE5E4" transform="translate(519,295)"/>
<path d="M0 0 C0.33 1.65 0.66 3.3 1 5 C-1.70879335 6.35439668 -4.00933268 6.06501451 -7 6 C-6.360625 5.690625 -5.72125 5.38125 -5.0625 5.0625 C-3.06389179 4.1654837 -3.06389179 4.1654837 -2 3 C-4.31 3.33 -6.62 3.66 -9 4 C-9 3.01 -9 2.02 -9 1 C-6.04335481 -0.4783226 -3.25770263 -0.06032783 0 0 Z " fill="#D0EBE5" transform="translate(600,326)"/>
<path d="M0 0 C4.29625631 0.48821094 6.6615409 1.29294512 10 4 C8.80503906 3.98259766 8.80503906 3.98259766 7.5859375 3.96484375 C-0.25478989 3.88148443 -0.25478989 3.88148443 -8 5 C-8 4.01 -8 3.02 -8 2 C-5.36 2 -2.72 2 0 2 C0 1.34 0 0.68 0 0 Z " fill="#BFD0CC" transform="translate(134,285)"/>
<path d="M0 0 C5.75 1.75 5.75 1.75 8 4 C8 5.32 8 6.64 8 8 C4.7 8.66 1.4 9.32 -2 10 C-2 9.01 -2 8.02 -2 7 C0.31 7 2.62 7 5 7 C5 6.01 5 5.02 5 4 C4.34 4 3.68 4 3 4 C3 3.34 3 2.68 3 2 C2.01 2 1.02 2 0 2 C0 1.34 0 0.68 0 0 Z " fill="#82C0B1" transform="translate(346,284)"/>
<path d="M0 0 C1.65 0.33 3.3 0.66 5 1 C4.04867187 1.32097656 4.04867187 1.32097656 3.078125 1.6484375 C0.74386889 2.85438953 0.74386889 2.85438953 0.171875 5.6015625 C0.03265625 6.59929687 -0.1065625 7.59703125 -0.25 8.625 C-0.47429687 10.12933594 -0.47429687 10.12933594 -0.703125 11.6640625 C-0.80109375 12.43492187 -0.8990625 13.20578125 -1 14 C-1.66 14 -2.32 14 -3 14 C-3 10.7 -3 7.4 -3 4 C-2.34 4 -1.68 4 -1 4 C-0.67 2.68 -0.34 1.36 0 0 Z " fill="#C2D0CD" transform="translate(509,264)"/>
<path d="M0 0 C3 1 3 1 5 4 C7.93597539 4.38384509 10.68027373 4.603843 13.625 4.6875 C14.82769531 4.73874023 14.82769531 4.73874023 16.0546875 4.79101562 C18.03596318 4.87356878 20.01796037 4.93845916 22 5 C22 5.33 22 5.66 22 6 C18.89614789 6.11613204 15.79285338 6.18722029 12.6875 6.25 C11.36588867 6.30027344 11.36588867 6.30027344 10.01757812 6.3515625 C3.50187213 6.45066069 3.50187213 6.45066069 0.89453125 4.109375 C0 2 0 2 0 0 Z " fill="#C3EDE2" transform="translate(450,313)"/>
<path d="M0 0 C0.33 0.99 0.66 1.98 1 3 C1.66 3 2.32 3 3 3 C3.45375 3.61875 3.9075 4.2375 4.375 4.875 C6.10279389 7.13442278 7.40813228 7.92750301 10 9 C6.28400809 9.20086443 5.22791555 9.1519437 2 7 C2 6.34 2 5.68 2 5 C0.02 5 -1.96 5 -4 5 C-2.68 3.35 -1.36 1.7 0 0 Z " fill="#B2E8DA" transform="translate(334,310)"/>
<path d="M0 0 C4.90567888 -0.28301994 7.24528933 -0.16492205 11 3 C8.89594609 3.16808419 6.79175242 3.33441948 4.6875 3.5 C3.51574219 3.5928125 2.34398437 3.685625 1.13671875 3.78125 C-0.905194 3.92364989 -2.9531279 4 -5 4 C-4.67 3.34 -4.34 2.68 -4 2 C-2.68 2 -1.36 2 0 2 C0 1.34 0 0.68 0 0 Z " fill="#A5BAB5" transform="translate(163,285)"/>
<path d="M0 0 C0.66 0.66 1.32 1.32 2 2 C-3.49459177 6.09171728 -7.11217255 7.72503447 -14 7 C-15 6 -15 6 -15.0625 3.4375 C-15.041875 2.633125 -15.02125 1.82875 -15 1 C-14.01 2.32 -13.02 3.64 -12 5 C-6.71201818 4.58525633 -3.88309282 3.64775386 0 0 Z " fill="#95DDCB" transform="translate(274,312)"/>
<path d="M0 0 C1.65 0 3.3 0 5 0 C5.1875 2.375 5.1875 2.375 5 5 C2 7 2 7 -0.6875 6.625 C-1.450625 6.41875 -2.21375 6.2125 -3 6 C-3 4.68 -3 3.36 -3 2 C-2.01 2.33 -1.02 2.66 0 3 C0.99 3 1.98 3 3 3 C2.01 2.01 1.02 1.02 0 0 Z " fill="#D1E6E1" transform="translate(162,293)"/>
<path d="M0 0 C2.31 0 4.62 0 7 0 C7 0.33 7 0.66 7 1 C5.576875 1.3403125 5.576875 1.3403125 4.125 1.6875 C0.89863937 2.68023802 0.89863937 2.68023802 -0.3125 5.1875 C-1.08594576 8.1341788 -1.08594576 8.1341788 -1.5 11.75 C-1.665 12.8225 -1.83 13.895 -2 15 C-2.99 15.495 -2.99 15.495 -4 16 C-3.65697965 10.01488629 -3.17692157 5.24882694 0 0 Z " fill="#ECF0EF" transform="translate(503,285)"/>
<path d="M0 0 C0.66 0 1.32 0 2 0 C2 1.65 2 3.3 2 5 C2.99 4.67 3.98 4.34 5 4 C5.66 4.66 6.32 5.32 7 6 C5.04783565 7.95216435 3.46800047 8.84826645 1 10 C1.33 9.01 1.66 8.02 2 7 C0.02 7.99 0.02 7.99 -2 9 C-1.505 7.88625 -1.505 7.88625 -1 6.75 C0.22782871 3.86116688 0.22782871 3.86116688 0 0 Z " fill="#569887" transform="translate(415,276)"/>
<path d="M0 0 C0.33 1.32 0.66 2.64 1 4 C3.64 3.67 6.28 3.34 9 3 C6.997499 5.002501 5.593341 5.93215371 3 7 C1.68 7 0.36 7 -1 7 C-1.33 5.02 -1.66 3.04 -2 1 C-1.34 0.67 -0.68 0.34 0 0 Z " fill="#BAE2D8" transform="translate(77,274)"/>
<path d="M0 0 C0.9075 0.268125 1.815 0.53625 2.75 0.8125 C4.008125 1.163125 5.26625 1.51375 6.5625 1.875 C7.614375 2.184375 8.66625 2.49375 9.75 2.8125 C9.09 3.4725 8.43 4.1325 7.75 4.8125 C4.92042171 4.44973355 2.45915709 3.71555236 -0.25 2.8125 C-1.91621616 2.77375079 -3.58394172 2.7674714 -5.25 2.8125 C-3.52965292 0.54888542 -2.91844645 -0.24320387 0 0 Z " fill="#BFE7DD" transform="translate(376.25,314.1875)"/>
<path d="M0 0 C1.18916016 0.02707031 1.18916016 0.02707031 2.40234375 0.0546875 C4.35208348 0.10166918 6.30119878 0.17340956 8.25 0.25 C8.25 0.58 8.25 0.91 8.25 1.25 C7.29738281 1.28738281 6.34476562 1.32476562 5.36328125 1.36328125 C4.10902344 1.42902344 2.85476563 1.49476563 1.5625 1.5625 C0.32113281 1.62050781 -0.92023438 1.67851562 -2.19921875 1.73828125 C-5.83628434 2.26243482 -7.71162497 3.29558579 -10.75 5.25 C-11.41 4.92 -12.07 4.59 -12.75 4.25 C-9.14448484 -0.67366049 -5.60574573 -0.24170711 0 0 Z " fill="#8CA6A0" transform="translate(293.75,286.75)"/>
<path d="M0 0 C2.97 0.495 2.97 0.495 6 1 C6 1.33 6 1.66 6 2 C4.35 2 2.7 2 1 2 C0.896875 2.7425 0.79375 3.485 0.6875 4.25 C-0.04253504 7.17014018 -1.06789398 8.73187554 -3 11 C-2.67 8.03 -2.34 5.06 -2 2 C-1.34 2 -0.68 2 0 2 C0 1.34 0 0.68 0 0 Z " fill="#D3DEDB" transform="translate(124,268)"/>
<path d="M0 0 C0.99 0.495 0.99 0.495 2 1 C1.67 1.66 1.34 2.32 1 3 C1.66386719 2.7834375 2.32773438 2.566875 3.01171875 2.34375 C3.89472656 2.0653125 4.77773437 1.786875 5.6875 1.5 C6.55761719 1.2215625 7.42773438 0.943125 8.32421875 0.65625 C10.99391677 0.00149195 13.26396684 -0.11831495 16 0 C12.67148232 3.01343955 10.18117187 3.44667544 5.75 3.6875 C4.67234375 3.75324219 3.5946875 3.81898438 2.484375 3.88671875 C1.25460938 3.94279297 1.25460938 3.94279297 0 4 C0 2.68 0 1.36 0 0 Z " fill="#A0E7D5" transform="translate(210,275)"/>
<path d="M0 0 C1.299375 -0.03867187 1.299375 -0.03867187 2.625 -0.078125 C5.42903194 0.30927415 6.26286782 1.07858478 8 3.25 C7.35933594 3.16621094 6.71867187 3.08242188 6.05859375 2.99609375 C0.76924686 2.37335395 -3.77045499 2.22682815 -9 3.25 C-7.18654311 -0.37691377 -3.6492578 0.06516532 0 0 Z " fill="#D7F3EC" transform="translate(472,273.75)"/>
<path d="M0 0 C1.65 0.33 3.3 0.66 5 1 C5.33 1.99 5.66 2.98 6 4 C7.65 4.33 9.3 4.66 11 5 C10.34 5.66 9.68 6.32 9 7 C6.375 6.625 6.375 6.625 4 6 C3.67 5.01 3.34 4.02 3 3 C1.68 3 0.36 3 -1 3 C-0.67 2.01 -0.34 1.02 0 0 Z " fill="#D0ECE5" transform="translate(553,313)"/>
<path d="M0 0 C0.66 0 1.32 0 2 0 C0.55395683 6.38669065 0.55395683 6.38669065 -1.75 8.9375 C-4.62066111 10.29308997 -6.86433782 10.21379515 -10 10 C-10 9.67 -10 9.34 -10 9 C-6.535 8.505 -6.535 8.505 -3 8 C-2.67 6.35 -2.34 4.7 -2 3 C-1.34 3 -0.68 3 0 3 C0 2.01 0 1.02 0 0 Z " fill="#D6DFDD" transform="translate(354,301)"/>
<path d="M0 0 C2.125 0.375 2.125 0.375 4 1 C4.33 2.32 4.66 3.64 5 5 C1.77208445 7.1519437 0.71599191 7.20086443 -3 7 C-1.68 6.67 -0.36 6.34 1 6 C1 5.34 1 4.68 1 4 C1.66 4 2.32 4 3 4 C3 3.34 3 2.68 3 2 C1.35 2 -0.3 2 -2 2 C-1.34 1.34 -0.68 0.68 0 0 Z " fill="#C3D8D3" transform="translate(600,315)"/>
<path d="M0 0 C0.66 0 1.32 0 2 0 C1.72510809 4.03174806 1.46508424 5.56894631 -1.5625 8.375 C-2.366875 8.91125 -3.17125 9.4475 -4 10 C-4.66 9.67 -5.32 9.34 -6 9 C-5.67 8.34 -5.34 7.68 -5 7 C-4.34 7 -3.68 7 -3 7 C-2.67 6.01 -2.34 5.02 -2 4 C-1.34 4 -0.68 4 0 4 C0 2.68 0 1.36 0 0 Z " fill="#D3DDDB" transform="translate(240,299)"/>
<path d="M0 0 C3.79588866 0.54226981 5.47211993 2.20127563 8 5 C4.38970831 5 1.44193324 4.03907418 -2 3 C-1.34 2.01 -0.68 1.02 0 0 Z " fill="#C8EAE1" transform="translate(352,312)"/>
<path d="M0 0 C1.32 0.66 2.64 1.32 4 2 C4 3.32 4 4.64 4 6 C3.01 6.33 2.02 6.66 1 7 C1 5.35 1 3.7 1 2 C0.34 2 -0.32 2 -1 2 C-1.33 2.99 -1.66 3.98 -2 5 C-2.33 4.01 -2.66 3.02 -3 2 C-2.01 1.34 -1.02 0.68 0 0 Z " fill="#A6D0C5" transform="translate(420,303)"/>
<path d="M0 0 C2.64 0 5.28 0 8 0 C8 0.99 8 1.98 8 3 C6.35 3.33 4.7 3.66 3 4 C3 3.34 3 2.68 3 2 C2.01 1.67 1.02 1.34 0 1 C0 0.67 0 0.34 0 0 Z " fill="#D5F2EB" transform="translate(590,317)"/>
<path d="M0 0 C1.9375 0.8125 1.9375 0.8125 4 2 C4.33 2.99 4.66 3.98 5 5 C2.03 4.67 -0.94 4.34 -4 4 C-2.68 2.68 -1.36 1.36 0 0 Z " fill="#B0E5D8" transform="translate(516,312)"/>
<path d="M0 0 C2.4375 0.75 2.4375 0.75 5 2 C5.8125 4.125 5.8125 4.125 6 6 C5.67 5.34 5.34 4.68 5 4 C1.71023192 2.90341064 0.28696233 3.20046862 -3 4 C-2.01 2.68 -1.02 1.36 0 0 Z " fill="#B0E9DB" transform="translate(393,311)"/>
<path d="M0 0 C0.33 0.99 0.66 1.98 1 3 C1.99 3.33 2.98 3.66 4 4 C4.33 4.99 4.66 5.98 5 7 C2.36 6.34 -0.28 5.68 -3 5 C-2.01 3.35 -1.02 1.7 0 0 Z " fill="#C7ECE2" transform="translate(314,310)"/>
<path d="M0 0 C1.98 0.495 1.98 0.495 4 1 C3.01 1.495 3.01 1.495 2 2 C1.67 2.99 1.34 3.98 1 5 C2.32 5.66 3.64 6.32 5 7 C2 7 2 7 -1 5 C-0.67 3.35 -0.34 1.7 0 0 Z " fill="#ECF3F1" transform="translate(204,305)"/>
<path d="M0 0 C0.66 0 1.32 0 2 0 C2 1.98 2 3.96 2 6 C1.01 6.495 1.01 6.495 0 7 C0 6.01 0 5.02 0 4 C-0.33 4.66 -0.66 5.32 -1 6 C-1.66 6 -2.32 6 -3 6 C-1.125 1.125 -1.125 1.125 0 0 Z " fill="#448878" transform="translate(623,304)"/>
<path d="M0 0 C1.43088528 2.86177057 0.59991697 4.93375773 0 8 C-2.31 8.33 -4.62 8.66 -7 9 C-3.25 6 -3.25 6 -1 6 C-1.020625 5.195625 -1.04125 4.39125 -1.0625 3.5625 C-1 1 -1 1 0 0 Z " fill="#C0D1CC" transform="translate(213,298)"/>
<path d="M0 0 C0.66 0 1.32 0 2 0 C1.67 2.97 1.34 5.94 1 9 C-2 10 -2 10 -4.1875 9.0625 C-4.785625 8.711875 -5.38375 8.36125 -6 8 C-4.35 7.67 -2.7 7.34 -1 7 C-0.67 4.69 -0.34 2.38 0 0 Z " fill="#F4F8F7" transform="translate(453,297)"/>
<path d="M0 0 C-3.82517513 2.39073445 -7.59665524 2.55966552 -12 3 C-10.72318199 0.44636398 -9.74361591 0.26675196 -7.125 -0.75 C-6.42632812 -1.03359375 -5.72765625 -1.3171875 -5.0078125 -1.609375 C-3 -2 -3 -2 0 0 Z " fill="#C0EADF" transform="translate(172,301)"/>
<path d="M0 0 C0.66 0.33 1.32 0.66 2 1 C1.27683594 1.50660156 1.27683594 1.50660156 0.5390625 2.0234375 C-0.09257813 2.46945312 -0.72421875 2.91546875 -1.375 3.375 C-2.00148438 3.81585938 -2.62796875 4.25671875 -3.2734375 4.7109375 C-5.12380509 6.02808866 -5.12380509 6.02808866 -7 8 C-6.875 5.6875 -6.875 5.6875 -6 3 C-3.0625 1.125 -3.0625 1.125 0 0 Z " fill="#DBE3E1" transform="translate(528,287)"/>
<path d="M0 0 C2.8125 0.25 2.8125 0.25 6 1 C6.99 2.32 7.98 3.64 9 5 C5.7 4.01 2.4 3.02 -1 2 C-0.67 1.34 -0.34 0.68 0 0 Z " fill="#D8EDE7" transform="translate(274,314)"/>
<path d="M0 0 C0.66 0 1.32 0 2 0 C0.52307692 6.52307692 0.52307692 6.52307692 -2.125 8.9375 C-2.74375 9.288125 -3.3625 9.63875 -4 10 C-3.67 8.68 -3.34 7.36 -3 6 C-2.34 6 -1.68 6 -1 6 C-0.67 4.02 -0.34 2.04 0 0 Z " fill="#EBEFEE" transform="translate(481,298)"/>
<path d="M0 0 C0.66 0 1.32 0 2 0 C1.745504 1.48206495 1.47088238 2.96068615 1.1875 4.4375 C1.03667969 5.26121094 0.88585937 6.08492188 0.73046875 6.93359375 C0.48941406 7.61550781 0.24835938 8.29742187 0 9 C-0.99 9.33 -1.98 9.66 -3 10 C-2.01 6.7 -1.02 3.4 0 0 Z " fill="#ECF0EF" transform="translate(399,278)"/>
<path d="M0 0 C-2.55991624 2.01136276 -5.04590299 3.62845496 -8 5 C-7.75 3.125 -7.75 3.125 -7 1 C-4.09342573 -1.03460199 -3.47133392 -1.15711131 0 0 Z " fill="#89E2CC" transform="translate(616,321)"/>
<path d="M0 0 C0.99 0.66 1.98 1.32 3 2 C1.71349294 2.69710731 0.42059335 3.38242876 -0.875 4.0625 C-1.95394531 4.63677734 -1.95394531 4.63677734 -3.0546875 5.22265625 C-3.69664062 5.47917969 -4.33859375 5.73570312 -5 6 C-5.66 5.67 -6.32 5.34 -7 5 C-4.69 3.35 -2.38 1.7 0 0 Z " fill="#B7F0E1" transform="translate(307,318)"/>
<path d="M0 0 C1.32 0.66 2.64 1.32 4 2 C4 2.66 4 3.32 4 4 C2.68 4.33 1.36 4.66 0 5 C0 4.34 0 3.68 0 3 C-0.66 2.67 -1.32 2.34 -2 2 C-1.34 1.34 -0.68 0.68 0 0 Z " fill="#498C7B" transform="translate(178,304)"/>
<path d="M0 0 C0.66 0 1.32 0 2 0 C4.67927341 4.01891012 4.15601248 6.24161923 4 11 C3.67 11 3.34 11 3 11 C3 9.02 3 7.04 3 5 C2.34 5 1.68 5 1 5 C0.67 3.35 0.34 1.7 0 0 Z " fill="#DDE5E3" transform="translate(480,277)"/>
</svg>
