<svg xmlns="http://www.w3.org/2000/svg" version="1.1" xmlns:xlink="http://www.w3.org/1999/xlink" xmlns:svgjs="http://svgjs.dev/svgjs" width="100%" height="100%" viewBox="0 0 1000 600"><rect width="1000" height="600" x="0" y="0" fill="#29dbae"/><g><rect width="333.3333333333333" height="333.3333333333333" rx="13.333333333333334" ry="13.333333333333334" y="282.81498998378913" fill="#29dbae" transform="matrix(0.47967556080826057,0,0,0.47967556080826057,0,84.39461156067188)" x="260.59280395507807"/><path d="M385.73171267088054 456.9411028974672L385.73171267088054 456.9411028974672Q374.36134024074335 458.52259354722247 366.890160274658 458.52259354722247L366.890160274658 458.52259354722247Q364.3270547388477 458.52259354722247 364.3270547388477 456.55936377511244L364.3270547388477 456.55936377511244Q364.3270547388477 452.03302846719214 370.5166819370279 447.04315279641247Q376.7063091352081 442.02601004546466 390.6397871011556 438.290420062422L390.6397871011556 438.290420062422Q396.9384826200086 415.9041472443341 404.98227126962604 397.253464409289L404.98227126962604 397.253464409289Q385.34997354852584 398.235079295344 372.7798495909881 410.23259456934966L372.7798495909881 410.23259456934966Q369.6441353716457 413.36830878869205 367.68090559953566 415.14066899962467Q365.71767582742564 416.88576213038914 364.2452534983431 416.88576213038914Q362.7728311692606 416.88576213038914 361.3822100806827 414.5407932359244Q360.01885607227297 412.1958243414597 360.01885607227297 408.26936479723963L360.01885607227297 408.26936479723963Q360.2097256334503 393.1361353038916 380.4418991182508 383.7289926458644Q400.6468055228831 374.294582907669 430.3133887458789 374.4854524688464L430.3133887458789 374.4854524688464L489.21028190917946 375.46706735490136Q494.5000954618092 375.46706735490136 494.5000954618092 379.58439646029876L494.5000954618092 379.58439646029876Q494.5000954618092 380.7841479876994 492.9186048120539 383.81079388636897Q491.36438124246683 386.8647068652068 490.19189679523447 390.3821602069039L490.19189679523447 390.3821602069039Q487.62879125942413 397.4716010506345 479.1759964072838 397.4716010506345L479.1759964072838 397.4716010506345L472.904567968599 397.4716010506345L446.78270516746846 397.253464409289L431.6767427542886 397.253464409289Q430.09525210453336 408.460234358417 422.24233301609326 433.79135183466985L422.24233301609326 433.79135183466985L458.18034467777386 434.36396051820196Q461.31605889711625 434.36396051820196 461.31605889711625 438.0995505012446L461.31605889711625 438.0995505012446Q461.31605889711625 439.27203494847697 460.33444401106124 442.216879606642Q459.3528291250062 445.16172426480705 458.5620838001286 448.29743848414944L458.5620838001286 448.29743848414944Q457.0078602305415 454.78700356417977 451.9089162390891 454.78700356417977L451.9089162390891 454.78700356417977L422.0514634549159 453.42364955577006L419.51562499927377 453.42364955577006Q418.3158734718732 453.42364955577006 416.76164990228614 453.6145191169474L416.76164990228614 453.6145191169474Q406.5364948392131 491.10675434821513 406.5364948392131 512.8931514026027L406.5364948392131 512.8931514026027Q406.5364948392131 524.4816604740854 383.95935245994787 524.4816604740854L383.95935245994787 524.4816604740854Q379.05127802967286 524.4816604740854 378.1787314642906 519.4645177231376Q377.3061848989084 514.4746420523579 377.3061848989084 506.212716761395L377.3061848989084 506.212716761395Q377.3061848989084 488.54364881240485 385.73171267088054 456.9411028974672Z " fill="#29dbae" transform="matrix(0.47967556080826057,0,0,0.47967556080826057,0,84.39461156067188)"/><path d="M717.8969985041361 480.0616419028314L717.8969985041361 480.0616419028314Q717.8969985041361 488.30553153046606 701.835961770768 488.30553153046606L701.835961770768 488.30553153046606Q698.3444320461227 488.30553153046606 697.7237156506302 484.73641225638426Q697.0836018677786 481.18669036966156 697.0836018677786 475.87180623325713Q697.0836018677786 470.5763194842118 697.8594973621442 464.4855398534417Q698.6353928565098 458.41415761003077 699.8768256474947 451.2953164492263L699.8768256474947 451.2953164492263Q702.262704292669 437.60076097367323 706.6659112231938 421.75309550125553Q711.0497207663597 405.9054300288379 715.394735534807 397.25419526666127L715.394735534807 397.25419526666127Q706.5883216737574 397.7973221127172 697.9370869115806 400.396572018842Q689.266454762045 402.9764245376077 685.6391433258858 404.0238834550013Q682.0118318897265 405.07134237239484 679.6259532445523 405.07134237239484Q677.2594719867371 405.07134237239484 677.2594719867371 403.5389487710228L677.2594719867371 403.5389487710228Q677.2594719867371 401.71559435926355 680.0526957664533 398.14647508518175Q682.8459195461695 394.59675319845906 688.0056245837009 390.9694417622998L688.0056245837009 390.9694417622998Q701.1376558258388 382.0272461897361 717.1986925592071 381.89146447822213L717.1986925592071 381.89146447822213L763.1511032130105 382.2988096127641Q766.9141963606838 382.2988096127641 766.9141963606838 385.22781510399426L766.9141963606838 385.22781510399426Q766.9141963606838 386.08130014779647 765.8085452812128 388.23441014466107Q764.6834968143827 390.4069175288847 763.8494091579397 392.90918049821386L763.8494091579397 392.90918049821386Q762.0260547461804 397.95250121159035 756.2456333131566 397.95250121159035Q750.4458144927736 397.95250121159035 728.662548488459 397.09901616778814L728.662548488459 397.09901616778814Q728.100024255044 403.24798796063567 726.4124515547987 412.8108999286918Q724.7442762419126 422.3932092841072 722.7851401186396 433.701886114486L722.7851401186396 433.701886114486Q718.0327802156502 462.6039932796051 717.8969985041361 480.0616419028314ZM800.8596242391793 439.28833367391843L800.8596242391793 439.28833367391843Q800.8596242391793 434.26441034790105 794.9240237072825 434.26441034790105Q788.9884231753856 434.26441034790105 783.2661939044392 443.40057979405617Q777.5439646334928 452.5561466275704 776.1473527436347 462.04146904619006L776.1473527436347 462.04146904619006Q776.4189161666625 465.2614353478073 776.6904795896905 468.48140164942464Q776.9814404000776 471.6819705636828 776.9814404000776 474.76615515378614L776.9814404000776 474.76615515378614Q776.9814404000776 482.1565597376186 772.0932987855743 484.8140018058208L772.0932987855743 484.8140018058208Q769.8625992392732 486.0748319841649 767.8258735665635 487.18048306363596Q765.8085452812128 488.30553153046606 763.1511032130105 488.30553153046606Q760.4936611448084 488.30553153046606 758.4763328594578 484.73641225638426Q756.439607186748 481.18669036966156 756.439607186748 473.64110668695594L756.439607186748 473.64110668695594Q756.439607186748 452.5561466275704 759.5237917768513 437.0576341276173L759.5237917768513 437.0576341276173Q764.2761516798407 413.0242711896424 778.3780522899358 385.65455762589534L778.3780522899358 385.65455762589534Q780.3371884132089 381.89146447822213 784.1002815608822 381.94965664029957Q787.8633747085553 382.0272461897361 790.2492533537297 387.18695122726746Q792.6157346115449 392.3660536521579 792.5575424494673 395.8575833768032Q792.4799529000309 399.34911310144844 791.4324939826372 402.62727156514313Q790.3850350652435 405.9054300288379 788.7750519144349 409.0478067810186Q787.1650687636263 412.1901835331994 785.1477404782756 415.4683419968941Q783.1304121929252 418.7465004605888 781.1712760696519 422.52899099562114L781.1712760696519 422.52899099562114L779.0763582348648 432.57683764765585Q784.5270240827833 423.49886036357816 793.740783078375 420.43407316083403L793.740783078375 420.43407316083403Q797.0965310915062 419.3090246940039 801.1311876622074 419.3090246940039L801.1311876622074 419.3090246940039Q810.6359074681861 419.3090246940039 815.5240490826895 423.57644991301476Q820.412190697193 427.82447774466647 820.412190697193 435.5834326883226Q820.412190697193 443.34238763197874 818.3948624118423 451.2953164492263Q816.3581367391325 459.2482452664738 815.4464595332529 462.68158282904164Q814.5541797147325 466.09552300425037 814.5541797147325 468.3262225505515Q814.5541797147325 470.5763194842118 816.0865733161047 470.5763194842118L816.0865733161047 470.5763194842118Q818.1814911508918 470.5763194842118 821.246278353636 467.91887741600954Q824.3304629437393 465.2614353478073 827.3952501464835 462.1190585956266Q830.4600373492276 458.9766818434459 833.0592872553525 456.31923977524366Q835.6391397741181 453.6617977070414 836.6090091420751 453.6617977070414L836.6090091420751 453.6617977070414Q838.5681452653482 453.6617977070414 838.5681452653482 458.41415761003077L838.5681452653482 458.41415761003077Q838.5681452653482 468.19044083903754 828.9276437478554 477.2684181231152L828.9276437478554 477.2684181231152Q812.7308253029732 486.773137929094 808.269426210371 486.773137929094L808.269426210371 486.773137929094Q807.8426836884701 486.773137929094 807.706901976956 486.63735621758L807.706901976956 486.63735621758Q796.5340068580911 486.63735621758 796.5340068580911 468.75296507245264L796.5340068580911 468.75296507245264Q796.5340068580911 461.07159967823304 797.9888109100266 454.65106446235757Q799.4630123493214 448.2305292464821 800.1613182942503 445.2821263678928Q800.8596242391793 442.3531208766626 800.8596242391793 439.28833367391843ZM864.1339018046951 470.9836646187538L864.1339018046951 470.9836646187538Q875.015836113173 470.9836646187538 885.2188618640807 462.33242985657716L885.2188618640807 462.33242985657716Q888.981955011754 459.11246355495985 891.3678336569283 456.3968293246802Q893.7343149147434 453.6617977070414 894.9951450930876 453.6617977070414L894.9951450930876 453.6617977070414Q896.9542812163606 453.6617977070414 896.9542812163606 457.5800699535878Q896.9542812163606 461.4983422001341 894.8593633815735 466.30889426520093Q892.7644455467864 471.1194463302677 887.876303932283 475.73602452174316L887.876303932283 475.73602452174316Q875.849923769616 487.04470135212193 854.9007454217444 487.04470135212193L854.9007454217444 487.04470135212193Q838.2965818423204 487.04470135212193 832.2833917609869 475.0377185768141L832.2833917609869 475.0377185768141Q830.1884739261995 470.84788290723975 830.1884739261995 463.0307358015062Q830.1884739261995 455.2135886957726 833.2532611289439 446.75632780718746Q836.3374457190471 438.29906691860225 841.438958594501 432.16949251311394Q846.5210740825958 426.0205207202664 853.2325701088585 422.5871831576986Q859.9440661351209 419.17324298248985 867.547841979904 419.17324298248985Q875.151617824687 419.17324298248985 879.2832613321839 422.9363361301631Q883.3955074523217 426.7188266651955 883.3955074523217 432.7126193591698Q883.3955074523217 438.7258094405033 880.3889124116549 442.5664921376131Q877.4017147583472 446.4071748347229 872.6493548553578 448.9870273534886Q867.8969949523685 451.5668798722543 862.0971761319854 453.603605544964Q856.2973573116026 455.6209338303146 850.7109097521702 458.1425941870028L850.7109097521702 458.1425941870028L850.7109097521702 461.6341239116481Q850.8660888510433 466.6580472376654 854.9007454217444 468.75296507245264Q858.9547993798049 470.84788290723975 864.1339018046951 470.9836646187538ZM861.7480231595209 431.60696827969883L861.7480231595209 431.60696827969883Q854.4934002872026 431.60696827969883 851.7001765074863 448.5020926695101L851.7001765074863 448.5020926695101Q854.6291819987164 446.5429565462369 857.2090345174822 445.01056294486483Q859.7888870362478 443.4781693434927 861.7480231595209 442.0815574536346L861.7480231595209 442.0815574536346Q865.9378588290954 438.99737286353127 866.0736405406092 435.0984980043441L866.0736405406092 435.0984980043441Q866.0736405406092 431.60696827969883 861.7480231595209 431.60696827969883ZM943.7407795266072 462.04146904619006Q943.7407795266072 460.37329373330397 945.9714790729083 460.37329373330397Q948.2021786192095 460.37329373330397 959.8018162599753 463.43808093604815L959.8018162599753 463.43808093604815Q962.4398609408186 440.54916385226255 974.7378045265136 413.72257713457145L974.7378045265136 413.72257713457145Q979.0634219076019 403.94629390556474 985.0766119889354 403.94629390556474L985.0766119889354 403.94629390556474Q986.1822630684062 403.94629390556474 987.2297219857999 406.33217255073896Q988.2771809031935 408.69865380855407 988.2771809031935 412.1901835331994L988.2771809031935 412.1901835331994Q988.2771809031935 416.38001920277367 983.8933713600277 435.23427971585807Q979.490164429503 454.0885402289425 978.0935525396449 468.05465912752356L978.0935525396449 468.05465912752356Q987.3073115352365 470.1495769623107 994.3679605339635 470.1495769623107Q1001.4092121453316 470.1495769623107 1007.2866205151511 466.4446759767149Q1013.1446314976113 462.7397749911191 1017.3344671671857 456.8817640086587L1017.3344671671857 456.8817640086587Q1025.9857019293622 444.4480387114497 1025.9857019293622 426.9903900882234L1025.9857019293622 426.9903900882234Q1025.8499202178486 394.7325349099731 1000.3035610658605 394.7325349099731L1000.3035610658605 394.7325349099731Q991.2255837817829 394.868316621487 968.181487599124 402.8406428260937L968.181487599124 402.8406428260937Q963.7006911191627 404.37303642746576 960.3449431060315 404.37303642746576Q957.0085924802593 404.37303642746576 957.0085924802593 402.4139003041926L957.0085924802593 402.4139003041926Q957.0085924802593 399.7564582359904 960.9074673394464 396.1291467998311Q964.8257395859928 392.5018353636719 970.9747113788403 389.1460873505406L970.9747113788403 389.1460873505406Q986.0464813568924 381.03797943442 1000.3035610658605 381.03797943442L1000.3035610658605 381.03797943442Q1019.856127523874 381.03797943442 1032.425634532597 391.51256860835576L1032.425634532597 391.51256860835576Q1047.2258410876211 403.94629390556474 1047.090059376107 429.22108963452456L1047.090059376107 429.22108963452456Q1047.090059376107 439.98663961884745 1043.7343113629759 450.46122879278323Q1040.3785633498446 460.935817966719 1033.5312856120681 469.1021180449171Q1026.6840078742916 477.2684181231152 1016.2094187003556 482.29234144913255Q1005.7348295264198 487.33566216250904 991.4971472048107 487.33566216250904L991.4971472048107 487.33566216250904Q985.7749179338643 487.33566216250904 976.9685040728145 484.8140018058208L976.9685040728145 484.8140018058208Q975.9986347048575 487.47144387402307 972.0803624583114 487.47144387402307L972.0803624583114 487.47144387402307Q964.8257395859928 487.47144387402307 962.2458870672272 485.02737306677136Q959.6466371611023 482.58330225951966 959.2392920265604 476.9968547000873L959.2392920265604 476.9968547000873Q952.5277960002977 473.2143641650549 948.124589069773 469.17970759435366Q943.7407795266072 465.12565363629335 943.7407795266072 462.04146904619006L943.7407795266072 462.04146904619006ZM1070.134155558766 486.63735621758L1070.134155558766 486.63735621758Q1056.168036660185 486.63735621758 1056.168036660185 460.50907544481794L1056.168036660185 460.50907544481794Q1056.168036660185 446.27139312320895 1059.6595663848302 434.671755482443L1059.6595663848302 434.671755482443Q1065.0908348453895 416.80676172467474 1071.938112583166 416.80676172467474L1071.938112583166 416.80676172467474Q1075.9921665412262 416.80676172467474 1078.3586477990411 422.23803018523404L1078.3586477990411 422.23803018523404Q1080.3177839223144 426.4278658548084 1080.1820022108004 430.4819198128687L1080.1820022108004 430.4819198128687Q1080.1820022108004 436.0683673723011 1076.8262541976692 450.1702679823961L1076.8262541976692 450.1702679823961Q1073.6256852834113 462.46821156809114 1073.6256852834113 465.3972170593213Q1073.6256852834113 468.3262225505515 1075.0804893353466 469.45127101738166Q1076.5546907746411 470.5763194842118 1078.5720190599918 470.5763194842118Q1080.6087447327018 470.5763194842118 1083.6735319354457 467.91887741600954Q1086.73831913819 465.2614353478073 1089.8225037282932 462.1190585956266Q1092.8872909310376 458.9766818434459 1095.4671434498032 456.31923977524366Q1098.066393355928 453.6617977070414 1099.036262723885 453.6617977070414L1099.036262723885 453.6617977070414Q1100.9953988471584 453.6617977070414 1100.9953988471584 458.41415761003077L1100.9953988471584 458.41415761003077Q1100.9953988471584 468.19044083903754 1091.141526068715 477.4817893840658Q1081.3070506776307 486.773137929094 1070.134155558766 486.63735621758ZM1075.8563848297122 405.4786875069368L1075.8563848297122 405.4786875069368Q1072.07389429468 399.8922399475044 1072.07389429468 393.4717047316289Q1072.07389429468 387.0511695157535 1074.1106199673895 382.7837442967426Q1076.1279482527402 378.53571646509084 1077.9513026644995 376.4989907923811Q1079.7552596888995 374.48166250703053 1082.1411383340737 374.48166250703053L1082.1411383340737 374.48166250703053Q1086.040013193261 374.48166250703053 1089.2599794948783 380.2814813274135Q1092.4799457964955 386.08130014779647 1092.4799457964955 389.98017500698364L1092.4799457964955 389.98017500698364Q1092.4799457964955 397.25419526666127 1087.3784329210416 401.366441386799Q1082.2769200455878 405.4786875069368 1075.8563848297122 405.4786875069368ZM1147.4909363470174 422.66477270713517L1147.4909363470174 422.66477270713517Q1149.4500724702907 416.51580091428764 1153.775689851379 416.51580091428764L1153.775689851379 416.51580091428764Q1157.6939620979256 416.65158262580167 1161.1854918225704 422.04405631164263Q1164.677021547216 427.41713261012455 1164.677021547216 430.3461381013547L1164.677021547216 430.3461381013547Q1164.405458124188 436.0683673723011 1161.1854918225704 448.57968221894663Q1157.9655255209532 461.07159967823304 1152.107514538493 481.0509086581476L1152.107514538493 481.0509086581476Q1161.3212735340844 473.91267010998394 1170.2634691066482 462.46821156809114L1170.2634691066482 462.46821156809114Q1173.3282563093926 458.5499393215448 1175.5007636936161 456.1058685142931Q1177.6732710778401 453.6617977070414 1179.069882967698 453.6617977070414L1179.069882967698 453.6617977070414Q1181.009621703612 453.6617977070414 1181.009621703612 458.1425941870028L1181.009621703612 458.1425941870028Q1181.009621703612 466.9296106606934 1171.1751463125279 478.6650300129733Q1161.3212735340844 490.4004493652532 1147.0835912124758 496.95676629264267L1147.0835912124758 496.95676629264267Q1145.3960185122305 502.5432138520751 1143.4562797763165 507.5865345654516Q1141.4971436530432 512.610457891469 1138.41295906294 516.3735510391422L1138.41295906294 516.3735510391422Q1131.7208604240363 524.4816589552628 1118.0263049484834 524.4816589552628L1118.0263049484834 524.4816589552628Q1108.8125459528915 524.4816589552628 1102.3144211875797 519.1667748188584Q1095.816296422268 513.8712880698131 1095.816296422268 505.8989618652064L1095.816296422268 505.8989618652064Q1095.816296422268 501.5733444841181 1098.6871097514204 499.05168412742984Q1101.5579230805733 496.5494211581007 1106.5818464065906 495.01702755672864Q1111.6057697326078 493.4652365679974 1118.375457920948 492.3595854885264Q1125.145146109288 491.23453702169627 1132.8265115035074 489.5663617088102L1132.8265115035074 489.5663617088102Q1133.5248174484364 487.18048306363596 1134.029149519774 484.8915913552574Q1134.5140842037526 482.58330225951966 1135.0766084371676 480.19742361434544L1135.0766084371676 480.19742361434544Q1127.395243042948 487.33566216250904 1116.2805400861607 487.33566216250904Q1105.1852345167326 487.33566216250904 1099.1720444353991 481.18669036966156Q1093.1782517414244 475.0377185768141 1093.3140334529385 466.23130471576434L1093.3140334529385 466.23130471576434Q1093.3140334529385 442.4889025881766 1109.0841093759195 428.81374449998265L1109.0841093759195 428.81374449998265Q1119.9854410717567 419.44480640551785 1131.7208604240363 419.44480640551785L1131.7208604240363 419.44480640551785Q1135.7749143820965 419.44480640551785 1140.4496847356495 420.43407316083403Q1145.1244550892025 421.40394252879105 1147.4909363470174 422.66477270713517ZM1113.8364692789091 461.6341239116481L1113.8364692789091 461.6341239116481Q1113.8364692789091 472.3802765086118 1121.808795483516 472.3802765086118L1121.808795483516 472.3802765086118Q1126.2701945761182 472.3802765086118 1130.8867727675934 469.0245284954806Q1135.4839535717097 465.6881778697084 1138.277177351426 458.1425941870028L1138.277177351426 458.1425941870028Q1140.3720951862133 448.3663109579961 1142.6803842819509 440.1224213303615Q1144.9886733776884 431.87853170272683 1145.8227610341314 428.6779627884687L1145.8227610341314 428.6779627884687Q1134.0873416818517 430.21035638984074 1123.9619054803802 439.15255196240446Q1113.8364692789091 448.075350147609 1113.8364692789091 461.6341239116481ZM1128.5008941224191 502.4074321405611L1128.5008941224191 502.4074321405611Q1123.476970796402 503.39669889587725 1119.7138776487286 503.9398257419332Q1115.9313871136965 504.5023499753483 1113.4873163064444 504.92909249724937Q1111.0432454991928 505.3364376317913 1109.8600048702851 505.8989618652064Q1108.676764241378 506.46148609862144 1108.676764241378 507.72231627696556L1108.676764241378 507.72231627696556Q1108.676764241378 510.22457924629464 1111.8191409935584 512.0479336580538Q1114.961517745739 513.8712880698131 1118.0263049484834 513.71610897094L1118.0263049484834 513.71610897094Q1123.341189084888 513.71610897094 1128.5008941224191 502.4074321405611ZM1190.785904932619 486.63735621758L1190.785904932619 486.63735621758Q1176.8197860340379 486.63735621758 1176.8197860340379 460.50907544481794L1176.8197860340379 460.50907544481794Q1176.8197860340379 446.27139312320895 1180.3113157586831 434.671755482443L1180.3113157586831 434.671755482443Q1185.7619816066012 416.80676172467474 1192.6092593443777 416.80676172467474L1192.6092593443777 416.80676172467474Q1196.6633133024384 416.80676172467474 1199.0297945602533 422.23803018523404L1199.0297945602533 422.23803018523404Q1200.9889306835266 426.4278658548084 1200.8531489720126 430.4819198128687L1200.8531489720126 430.4819198128687Q1200.8531489720126 436.0683673723011 1197.4974009588814 450.1702679823961L1197.4974009588814 450.1702679823961Q1194.2774346572642 462.46821156809114 1194.2774346572642 465.3972170593213Q1194.2774346572642 468.3262225505515 1195.7516360965587 469.45127101738166Q1197.2258375358533 470.5763194842118 1199.243165821204 470.5763194842118Q1201.2604941065547 470.5763194842118 1204.3446786966579 467.91887741600954Q1207.4094658994022 465.2614353478073 1210.4936504895054 462.1190585956266Q1213.5584376922493 458.9766818434459 1216.1382902110154 456.31923977524366Q1218.718142729781 453.6617977070414 1219.7074094850973 453.6617977070414L1219.7074094850973 453.6617977070414Q1221.6665456083701 453.6617977070414 1221.6665456083701 458.41415761003077L1221.6665456083701 458.41415761003077Q1221.6665456083701 468.19044083903754 1211.8126728299271 477.4817893840658Q1201.9588000514836 486.773137929094 1190.785904932619 486.63735621758ZM1196.5275315909244 405.4786875069368L1196.5275315909244 405.4786875069368Q1192.7450410558918 399.8922399475044 1192.7450410558918 393.4717047316289Q1192.7450410558918 387.0511695157535 1194.7817667286017 382.7837442967426Q1196.7990950139524 378.53571646509084 1198.6224494257117 376.4989907923811Q1200.4264064501117 374.48166250703053 1202.812285095286 374.48166250703053L1202.812285095286 374.48166250703053Q1206.7111599544733 374.48166250703053 1209.9311262560905 380.2814813274135Q1213.1316951703484 386.08130014779647 1213.1316951703484 389.98017500698364L1213.1316951703484 389.98017500698364Q1213.1316951703484 397.25419526666127 1208.0495796822538 401.366441386799Q1202.9480668068 405.4786875069368 1196.5275315909244 405.4786875069368ZM1220.8906501140045 478.6068378508959Q1219.280666963196 474.9019368653001 1218.582361018267 469.93620570136017Q1217.884055073338 464.9898719247794 1217.884055073338 456.04767635221566Q1217.884055073338 447.105480779652 1221.2398030864692 431.87853170272683L1221.2398030864692 431.87853170272683L1214.9550495821077 431.87853170272683Q1213.2868742692217 431.87853170272683 1213.2868742692217 430.4819198128687L1213.2868742692217 430.4819198128687Q1213.2868742692217 427.12617179973745 1213.907590664714 424.97306180287285Q1214.5283070602063 422.80055441864914 1216.914185705381 420.0073306389329L1216.914185705381 420.0073306389329L1220.2699337185122 420.0073306389329Q1222.2096724544263 420.0073306389329 1224.4597693880864 419.8715489274189L1224.4597693880864 419.8715489274189Q1231.1518680269896 398.35984634613226 1238.1349274762802 398.35984634613226L1238.1349274762802 398.35984634613226Q1243.7213750357128 398.4956280576463 1245.9520745820137 405.4786875069368L1245.9520745820137 405.4786875069368Q1246.514598815429 407.43782363020995 1247.212904760358 409.6685231765111L1247.212904760358 409.6685231765111L1241.4906754894118 419.73576721590496Q1251.2669587184182 420.0073306389329 1253.8468112371843 420.0073306389329Q1256.42666375595 420.0073306389329 1256.6400350169001 420.4922653229114Q1256.8534062778508 420.9965973942491 1256.8534062778508 421.9664667622061L1256.8534062778508 421.9664667622061Q1256.8534062778508 424.48812711889434 1255.670165648943 428.25122026656754Q1254.4869250200359 432.0143134142408 1252.9351340313046 431.87853170272683L1252.9351340313046 431.87853170272683L1238.9690151327236 431.18022575779776Q1236.0400096414933 448.2305292464821 1236.0400096414933 459.40342436534695Q1236.0400096414933 470.5763194842118 1239.2599759431105 470.5763194842118L1239.2599759431105 470.5763194842118Q1241.9174180113127 470.5763194842118 1248.9004774606033 466.1731125536869Q1255.8835369098938 461.76990562316206 1258.9483241126381 457.71585166510175Q1262.013111315382 453.6617977070414 1263.9722474386554 453.6617977070414L1263.9722474386554 453.6617977070414Q1265.9313835619282 453.6617977070414 1265.9313835619282 458.41415761003077Q1265.9313835619282 463.16651751302015 1262.5756355487974 468.1322486769601Q1259.2198875356657 473.0785824535409 1254.1377720475712 477.2102259610378Q1249.0362591721173 481.32247208117553 1242.809697829833 483.9799141493778Q1236.6025338749082 486.63735621758 1231.985955683433 486.63735621758Q1227.3887748793168 486.63735621758 1224.9447040720647 484.4648488333563Q1222.5006332648131 482.29234144913255 1220.8906501140045 478.6068378508959ZM1344.7041736273977 453.2544525724995L1344.7041736273977 453.2544525724995Q1347.2064365967267 453.2544525724995 1347.2064365967267 459.6749877883749L1347.2064365967267 459.6749877883749Q1347.2064365967267 463.16651751302015 1344.2774311054964 468.1322486769601Q1341.3484256142665 473.0785824535409 1336.6736552607135 477.2102259610378Q1331.9988849071606 481.32247208117553 1326.2572582488551 483.9799141493778Q1320.535028977909 486.63735621758 1315.0843631299904 486.63735621758L1315.0843631299904 486.63735621758Q1307.6939585461578 486.63735621758 1305.1722981894695 473.64110668695594L1305.1722981894695 473.64110668695594Q1301.5449867533102 479.6542967682895 1295.68697577085 483.4949794653993Q1289.8095674010306 487.33566216250904 1279.975092009946 487.33566216250904Q1270.121219231503 487.33566216250904 1264.1080291501694 481.18669036966156Q1258.1142364561952 475.0377185768141 1258.2500181677087 466.23130471576434L1258.2500181677087 466.23130471576434Q1258.2500181677087 442.4889025881766 1274.039491478049 428.81374449998265L1274.039491478049 428.81374449998265Q1280.7315901169527 423.09151522903625 1286.5314089373355 421.268160817277Q1292.3312277577188 419.44480640551785 1298.751762973594 419.44480640551785Q1305.1722981894695 419.44480640551785 1309.2263521475297 421.69490333917815L1309.2263521475297 421.69490333917815Q1311.185488270803 417.6408493811178 1313.687751240132 417.6408493811178L1313.687751240132 417.6408493811178Q1318.5758928546356 417.6408493811178 1322.9790997851605 421.88887721276956Q1327.382306715685 426.15630243178043 1327.382306715685 429.91939557945364L1327.382306715685 429.91939557945364Q1325.4231705924121 434.53597377092905 1321.6600774447388 440.95650898680447L1321.6600774447388 440.95650898680447Q1320.535028977909 447.37704420267994 1320.535028977909 458.9766818434459Q1320.535028977909 470.5763194842118 1323.4640344691388 470.5763194842118L1323.4640344691388 470.5763194842118Q1327.1107432926574 470.5763194842118 1341.0768621912384 456.04767635221566L1341.0768621912384 456.04767635221566Q1343.5791251605674 453.2544525724995 1344.7041736273977 453.2544525724995ZM1278.7724539936794 461.6341239116481L1278.7724539936794 461.6341239116481Q1278.7724539936794 472.3802765086118 1286.7447801982862 472.3802765086118L1286.7447801982862 472.3802765086118Q1295.2602332489487 472.2444947970979 1300.8466808083813 463.3022992245342L1300.8466808083813 463.3022992245342Q1302.8058169316541 460.23751202179 1304.0666471099985 455.75671554182856L1304.0666471099985 455.75671554182856Q1304.0666471099985 440.1224213303615 1306.8598708897148 428.9495262114966L1306.8598708897148 428.9495262114966Q1295.5317966719767 431.18022575779776 1287.1521253328283 439.8508579073335Q1278.7724539936794 448.5020926695101 1278.7724539936794 461.6341239116481ZM1371.3755812462155 486.63735621758L1371.3755812462155 486.63735621758Q1351.396272266301 486.773137929094 1344.1416493939823 471.6819705636828L1344.1416493939823 471.6819705636828Q1341.6199890372945 466.3864838146375 1341.6199890372945 458.3559654479534Q1341.6199890372945 450.32544708126926 1343.0166009271525 441.24746979719157L1343.0166009271525 441.24746979719157Q1345.8098247068688 423.09151522903625 1353.7821509114751 407.72878444059705L1353.7821509114751 407.72878444059705Q1357.8362048695353 399.8922399475044 1362.860128195553 394.30579238807195L1362.860128195553 394.30579238807195Q1373.8972416029037 382.0272461897361 1387.4366179795838 382.1630279012501L1387.4366179795838 382.1630279012501Q1393.4498080609173 382.1630279012501 1396.863748236126 385.4411863649448Q1400.2776884113346 388.7193448286396 1400.2776884113346 394.868316621487Q1400.2776884113346 401.01728841433453 1396.6503769751753 407.22445236925944Q1393.0230655390164 413.4510137115435 1387.3590284301472 420.0849201883695Q1381.7143887086372 426.7188266651955 1374.8671109708607 433.97344953751394Q1368.0198332330842 441.24746979719157 1361.4635163056946 449.7629228478542L1361.4635163056946 449.7629228478542L1361.4635163056946 455.34937040728664Q1361.4635163056946 463.16651751302015 1364.8192643188263 466.79382894917944Q1368.1556149445983 470.4211403853387 1372.6364114245598 470.4211403853387L1372.6364114245598 470.4211403853387Q1384.6433941998675 470.4211403853387 1393.857153195459 458.5499393215448L1393.857153195459 458.5499393215448Q1397.6396437304916 453.6617977070414 1399.5793824664056 453.6617977070414L1399.5793824664056 453.6617977070414Q1401.538518589679 453.6617977070414 1401.538518589679 458.41415761003077Q1401.538518589679 463.16651751302015 1398.9586660709133 468.1322486769601Q1396.3788135521472 473.0785824535409 1392.188977882573 477.2102259610378Q1387.9991422129988 481.32247208117553 1382.5484763650802 483.9799141493778Q1377.097810517162 486.63735621758 1371.3755812462155 486.63735621758ZM1378.921164928921 411.6276592997843Q1381.8501704201512 408.00034786362505 1383.5183457330372 405.07134237239484Q1385.2059184332825 402.1423368811646 1385.2059184332825 398.9999601289839Q1385.2059184332825 395.8575833768032 1382.9752188869816 395.8575833768032L1382.9752188869816 395.8575833768032Q1378.087077272478 395.8575833768032 1372.151476740581 405.9054300288379Q1366.2158762086842 415.9532766808726 1363.2674733300946 432.3052742246279L1363.2674733300946 432.3052742246279Q1368.0198332330842 425.0312539649503 1371.9962976417082 420.14311235044687Q1375.992159437691 415.2549707359435 1378.921164928921 411.6276592997843ZM1447.0641867215813 462.04146904619006Q1447.0641867215813 460.37329373330397 1449.3142836552415 460.37329373330397Q1451.5449832015424 460.37329373330397 1463.1252234549493 463.43808093604815L1463.1252234549493 463.43808093604815Q1465.7826655231515 440.54916385226255 1478.0806091088466 413.72257713457145L1478.0806091088466 413.72257713457145Q1482.4062264899349 403.94629390556474 1488.4194165712684 403.94629390556474L1488.4194165712684 403.94629390556474Q1489.5250676507394 403.94629390556474 1490.572526568133 406.33217255073896Q1491.6199854855267 408.69865380855407 1491.6199854855267 412.1901835331994L1491.6199854855267 412.1901835331994Q1491.6199854855267 416.38001920277367 1487.2167785550018 435.23427971585807Q1482.8329690118358 454.0885402289425 1481.4363571219778 468.05465912752356L1481.4363571219778 468.05465912752356Q1490.6501161175697 470.1495769623107 1497.6913677289376 470.1495769623107Q1504.7520167276643 470.1495769623107 1510.610027710125 466.4446759767149Q1516.4874360799445 462.7397749911191 1520.6772717495187 456.8817640086587L1520.6772717495187 456.8817640086587Q1529.3285065116952 444.4480387114497 1529.3285065116952 426.9903900882234L1529.3285065116952 426.9903900882234Q1529.1927248001816 394.7325349099731 1503.6269682608345 394.7325349099731L1503.6269682608345 394.7325349099731Q1494.5489909767566 394.868316621487 1471.5048947940982 402.8406428260937L1471.5048947940982 402.8406428260937Q1467.0434957014959 404.37303642746576 1463.6877476883647 404.37303642746576Q1460.3319996752334 404.37303642746576 1460.3319996752334 402.4139003041926L1460.3319996752334 402.4139003041926Q1460.3319996752334 399.7564582359904 1464.2502719217796 396.1291467998311Q1468.1685441683258 392.5018353636719 1474.298118573814 389.1460873505406L1474.298118573814 389.1460873505406Q1489.3892859392254 381.03797943442 1503.6269682608345 381.03797943442L1503.6269682608345 381.03797943442Q1523.1795347188477 381.03797943442 1535.7490417275708 391.51256860835576L1535.7490417275708 391.51256860835576Q1550.568645669954 403.94629390556474 1550.4134665710808 429.22108963452456L1550.4134665710808 429.22108963452456Q1550.4134665710808 439.98663961884745 1547.0771159453088 450.46122879278323Q1543.7213679321776 460.935817966719 1536.874090194401 469.1021180449171Q1530.0268124566246 477.2684181231152 1519.5522232826888 482.29234144913255Q1509.077634108753 487.33566216250904 1494.839951787144 487.33566216250904L1494.839951787144 487.33566216250904Q1489.1177225161973 487.33566216250904 1480.311308655148 484.8140018058208L1480.311308655148 484.8140018058208Q1479.3414392871905 487.47144387402307 1475.4231670406443 487.47144387402307L1475.4231670406443 487.47144387402307Q1468.1685441683258 487.47144387402307 1465.5692942622013 485.02737306677136Q1462.9894417434357 482.58330225951966 1462.5820966088936 476.9968547000873L1462.5820966088936 476.9968547000873Q1455.8706005826307 473.2143641650549 1451.4673936521062 469.17970759435366Q1447.0641867215813 465.12565363629335 1447.0641867215813 462.04146904619006L1447.0641867215813 462.04146904619006ZM1573.4575627537397 486.63735621758L1573.4575627537397 486.63735621758Q1559.4914438551586 486.63735621758 1559.4914438551586 460.50907544481794L1559.4914438551586 460.50907544481794Q1559.4914438551586 446.27139312320895 1562.982973579804 434.671755482443L1562.982973579804 434.671755482443Q1568.4336394277225 416.80676172467474 1575.280917165499 416.80676172467474L1575.280917165499 416.80676172467474Q1579.3349711235592 416.80676172467474 1581.7014523813746 422.23803018523404L1581.7014523813746 422.23803018523404Q1583.6605885046474 426.4278658548084 1583.5248067931334 430.4819198128687L1583.5248067931334 430.4819198128687Q1583.5248067931334 436.0683673723011 1580.1690587800022 450.1702679823961L1580.1690587800022 450.1702679823961Q1576.949092478385 462.46821156809114 1576.949092478385 465.3972170593213Q1576.949092478385 468.3262225505515 1578.4232939176795 469.45127101738166Q1579.897495356974 470.5763194842118 1581.9148236423248 470.5763194842118Q1583.9321519276755 470.5763194842118 1587.0163365177787 467.91887741600954Q1590.081123720523 465.2614353478073 1593.1653083106262 462.1190585956266Q1596.2300955133705 458.9766818434459 1598.8099480321362 456.31923977524366Q1601.3898005509018 453.6617977070414 1602.379067306218 453.6617977070414L1602.379067306218 453.6617977070414Q1604.3382034294914 453.6617977070414 1604.3382034294914 458.41415761003077L1604.3382034294914 458.41415761003077Q1604.3382034294914 468.19044083903754 1594.484330651048 477.4817893840658Q1584.6304578726044 486.773137929094 1573.4575627537397 486.63735621758ZM1579.1991894120451 405.4786875069368L1579.1991894120451 405.4786875069368Q1575.416698877013 399.8922399475044 1575.416698877013 393.4717047316289Q1575.416698877013 387.0511695157535 1577.4534245497225 382.7837442967426Q1579.4707528350732 378.53571646509084 1581.2941072468325 376.4989907923811Q1583.0980642712325 374.48166250703053 1585.4839429164067 374.48166250703053L1585.4839429164067 374.48166250703053Q1589.382817775594 374.48166250703053 1592.6027840772113 380.2814813274135Q1595.8033529914692 386.08130014779647 1595.8033529914692 389.98017500698364L1595.8033529914692 389.98017500698364Q1595.8033529914692 397.25419526666127 1590.7212375033746 401.366441386799Q1585.6197246279207 405.4786875069368 1579.1991894120451 405.4786875069368ZM1683.0915961076012 453.2544525724995L1683.0915961076012 453.2544525724995Q1685.6132564642894 453.2544525724995 1685.6132564642894 459.6749877883749L1685.6132564642894 459.6749877883749Q1685.6132564642894 463.16651751302015 1682.684250973059 468.1322486769601Q1679.7552454818288 473.0785824535409 1675.0610777409165 477.2102259610378Q1670.386307387364 481.32247208117553 1664.6640781164174 483.9799141493778Q1658.9418488454712 486.63735621758 1653.4911829975526 486.63735621758L1653.4911829975526 486.63735621758Q1646.0813810263612 486.63735621758 1643.5791180570318 473.64110668695594L1643.5791180570318 473.64110668695594Q1639.951806620873 479.6542967682895 1634.0743982510535 483.4949794653993Q1628.2163872685928 487.33566216250904 1618.3625144901494 487.33566216250904Q1608.5280390990656 487.33566216250904 1602.514849017732 481.18669036966156Q1596.5016589363986 475.0377185768141 1596.6568380352714 466.23130471576434L1596.6568380352714 466.23130471576434Q1596.6568380352714 442.4889025881766 1612.4269139582525 428.81374449998265L1612.4269139582525 428.81374449998265Q1619.1384099845154 423.09151522903625 1624.9382288048982 421.268160817277Q1630.7186502379218 419.44480640551785 1637.1585828411567 419.44480640551785Q1643.5791180570318 419.44480640551785 1647.6331720150924 421.69490333917815L1647.6331720150924 421.69490333917815Q1649.5729107510065 417.6408493811178 1652.0945711076947 417.6408493811178L1652.0945711076947 417.6408493811178Q1656.982712722198 417.6408493811178 1661.3859196527228 421.88887721276956Q1665.7891265832477 426.15630243178043 1665.7891265832477 429.91939557945364L1665.7891265832477 429.91939557945364Q1663.8299904599744 434.53597377092905 1660.0474999249423 440.95650898680447L1660.0474999249423 440.95650898680447Q1658.9418488454712 447.37704420267994 1658.9418488454712 458.9766818434459Q1658.9418488454712 470.5763194842118 1661.8708543367015 470.5763194842118L1661.8708543367015 470.5763194842118Q1665.4981657728604 470.5763194842118 1679.4642846714419 456.04767635221566L1679.4642846714419 456.04767635221566Q1681.9859450281301 453.2544525724995 1683.0915961076012 453.2544525724995ZM1617.179273861242 461.6341239116481L1617.179273861242 461.6341239116481Q1617.179273861242 472.3802765086118 1625.1322026784896 472.3802765086118L1625.1322026784896 472.3802765086118Q1633.6670531165114 472.2444947970979 1639.2535006759435 463.3022992245342L1639.2535006759435 463.3022992245342Q1641.1932394118576 460.23751202179 1642.454069590202 455.75671554182856L1642.454069590202 455.75671554182856Q1642.454069590202 440.1224213303615 1645.2472933699182 428.9495262114966L1645.2472933699182 428.9495262114966Q1633.9386165395395 431.18022575779776 1625.5589452003906 439.8508579073335Q1617.179273861242 448.5020926695101 1617.179273861242 461.6341239116481ZM1699.016851129455 462.7397749911191L1699.016851129455 462.7397749911191L1699.850938785898 479.79007847980347Q1699.850938785898 483.14582649293476 1696.3594090612528 485.7838711737778Q1692.8678793366075 488.4413132419801 1686.8740866426333 488.4413132419801L1686.8740866426333 488.4413132419801Q1683.382556917988 488.4413132419801 1682.044137190207 484.8140018058208Q1680.7251148497858 481.18669036966156 1680.7251148497858 474.20363092037104L1680.7251148497858 474.20363092037104Q1680.7251148497858 459.5392060768609 1682.1993162890803 451.21772689978974Q1683.654120341016 442.91564511007766 1687.9797377221043 434.4001920594151L1687.9797377221043 434.4001920594151Q1681.5592025062288 428.25122026656754 1681.5592025062288 423.78982117396527L1681.5592025062288 423.78982117396527Q1681.5592025062288 414.4208830795005 1691.6264465456225 414.4208830795005L1691.6264465456225 414.4208830795005Q1696.7861515831542 414.4208830795005 1700.7044238297003 419.8715489274189L1700.7044238297003 419.8715489274189Q1703.4976476094166 423.6346420750922 1704.7390804004017 428.6779627884687L1704.7390804004017 428.6779627884687Q1706.698216523675 429.3762687333977 1709.6272220149049 429.3762687333977L1709.6272220149049 429.3762687333977Q1713.6812759729655 429.3762687333977 1718.9961601093696 426.7188266651955L1718.9961601093696 426.7188266651955L1722.6234715455294 424.8954722534363Q1724.2916468584153 424.06138459699326 1725.5524770367592 424.06138459699326L1725.5524770367592 424.06138459699326Q1729.6065309948194 424.06138459699326 1733.6605849528796 435.93258566078714L1733.6605849528796 435.93258566078714Q1732.3997547745357 441.3832515087056 1730.9255533352411 446.4071748347229Q1729.4707492833054 451.43109816074025 1727.5116131600325 458.5499393215448Q1725.5524770367592 465.6881778697084 1725.4942848746819 468.1322486769601Q1725.4166953252452 470.5763194842118 1726.9490889266172 470.5763194842118L1726.9490889266172 470.5763194842118Q1729.0440067614045 470.5763194842118 1732.1281913515081 467.91887741600954Q1735.1929785542516 465.2614353478073 1738.257765756996 462.1190585956266Q1741.3419503470996 458.9766818434459 1743.9218028658652 456.31923977524366Q1746.5016553846308 453.6617977070414 1747.490922139947 453.6617977070414L1747.490922139947 453.6617977070414Q1749.4306608758611 453.6617977070414 1749.4306608758611 458.41415761003077L1749.4306608758611 458.41415761003077Q1749.4306608758611 468.05465912752356 1740.9927973746348 477.4041998346292Q1732.5355364860498 486.773137929094 1721.6536021775719 486.63735621758L1721.6536021775719 486.63735621758Q1715.2136695743375 486.63735621758 1712.013100660079 481.45825379268956Q1708.7931343584619 476.2985487551582 1708.6573526469479 468.88874678396655L1708.6573526469479 468.88874678396655Q1708.6573526469479 454.2243219404565 1715.2136695743375 441.0922906983185L1715.2136695743375 441.0922906983185Q1712.1488823715931 442.3531208766626 1708.3081996744836 442.3531208766626Q1704.4675169773736 442.3531208766626 1702.7993416644877 442.0815574536346L1702.7993416644877 442.0815574536346Q1701.5385114861438 447.37704420267994 1700.277681307799 452.76951788852097Q1699.016851129455 458.1425941870028 1699.016851129455 462.7397749911191ZM1780.020340741225 476.0075879447711L1780.020340741225 476.0075879447711Q1773.037281291935 485.64808946226384 1761.3018619396548 485.64808946226384L1761.3018619396548 485.64808946226384Q1751.8165395210353 485.64808946226384 1746.152502412166 481.67162505364007Q1740.5078626906566 477.6951606450163 1740.5078626906566 469.0245284954806L1740.5078626906566 469.0245284954806Q1740.5078626906566 465.3972170593213 1741.5553216080502 462.33242985657716Q1742.6027805254434 459.2482452664738 1744.9692617832588 454.78684617387154L1744.9692617832588 454.78684617387154L1749.023315741319 421.69490333917815Q1753.3489331224073 418.33915532604686 1760.7587350935992 418.33915532604686L1760.7587350935992 418.33915532604686Q1767.0434885979603 418.33915532604686 1767.8775762544033 426.7188266651955L1767.8775762544033 426.7188266651955Q1768.1491396774313 429.22108963452456 1768.1491396774313 432.65442719709245Q1768.1491396774313 436.0683673723011 1767.0434885979603 439.8508579073335L1767.0434885979603 439.8508579073335Q1761.4570410385281 459.11246355495985 1761.5928227500422 465.6881778697084L1761.5928227500422 465.6881778697084Q1761.5928227500422 470.7121011957258 1767.4508337325024 470.7121011957258Q1773.3282421023218 470.7121011957258 1776.1214658820381 466.9296106606934Q1778.9146896617544 463.16651751302015 1780.8544283976685 457.5800699535878L1780.8544283976685 457.5800699535878Q1784.501137221187 442.0815574536346 1787.6435139733676 432.0143134142408Q1790.7858907255481 421.9664667622061 1791.6199783819911 420.0073306389329L1791.6199783819911 420.0073306389329Q1793.0165902718495 416.65158262580167 1796.9154651310364 416.51580091428764L1796.9154651310364 416.51580091428764Q1800.833737377583 416.65158262580167 1804.3252671022283 422.04405631164263Q1807.8167968268735 427.41713261012455 1807.8167968268735 430.3461381013547L1807.8167968268735 430.3461381013547Q1807.5452334038455 440.1224213303615 1795.6740323400513 479.6542967682895L1795.6740323400513 479.6542967682895Q1804.7520096241292 472.51605822012584 1813.6748078093337 462.19664814506314L1813.6748078093337 462.19664814506314Q1816.758992399437 458.5499393215448 1818.8539102342243 456.1058685142931Q1820.9488280690116 453.6617977070414 1822.2096582473555 453.6617977070414L1822.2096582473555 453.6617977070414Q1824.1493969832695 453.6617977070414 1824.1493969832695 458.1425941870028L1824.1493969832695 458.1425941870028Q1824.1493969832695 466.9296106606934 1814.3149215921853 478.6650300129733Q1804.4610488137423 490.4004493652532 1790.2233664921332 496.95676629264267L1790.2233664921332 496.95676629264267Q1788.535793791888 502.5432138520751 1786.596055055974 507.5865345654516Q1784.6369189327006 512.610457891469 1781.5527343425974 516.3735510391422L1781.5527343425974 516.3735510391422Q1774.8606357036938 524.4816589552628 1761.1660802281408 524.4816589552628L1761.1660802281408 524.4816589552628Q1751.9523212325494 524.4816589552628 1745.4541964672371 519.1667748188584Q1738.9560717019249 513.8712880698131 1738.9560717019249 505.8989618652064L1738.9560717019249 505.8989618652064Q1738.9560717019249 501.4375627726041 1741.9626667425919 498.78012070440184Q1744.9692617832588 496.1226786361996 1750.2065563702263 494.376913773877Q1755.4438509571946 492.63114891155436 1762.4269104064851 491.3121265711328Q1769.4099698557757 489.97370684335215 1777.3628986730228 488.0339681074381L1777.3628986730228 488.0339681074381Q1779.322034796296 479.6542967682895 1780.020340741225 476.0075879447711ZM1761.0302985166268 513.71610897094L1761.0302985166268 513.71610897094Q1767.5866154440164 513.71610897094 1772.901499580421 502.2716504290471L1772.901499580421 502.2716504290471Q1767.8775762544033 503.2415197970041 1763.959304007857 503.7458518683418Q1760.0604291486698 504.2307865523203 1757.267205368954 504.63813168686227L1757.267205368954 504.63813168686227Q1751.6807578095213 505.4916167306644 1751.8165395210353 507.5865345654516L1751.8165395210353 507.5865345654516Q1751.8165395210353 510.22457924629464 1754.958916273216 512.0479336580538Q1758.1012930253964 513.8712880698131 1761.0302985166268 513.71610897094Z " fill="#0b4134" transform="matrix(0.47967556080826057,0,0,0.47967556080826057,0,84.39461156067188)"/></g></svg>